<svg xmlns="http://www.w3.org/2000/svg" xml:space="preserve" viewBox="0 0 1600 900"><style>.st1{opacity:.1;fill:#fff}.st6{fill:#686868}</style><g id="Layer_1"><linearGradient id="SVGID_1_" x1="800" x2="800" y1="0" y2="900" gradientUnits="userSpaceOnUse"><stop offset=".003" style="stop-color:#b57830"/><stop offset=".036" style="stop-color:#b27936"/><stop offset=".3" style="stop-color:#957d62"/><stop offset=".538" style="stop-color:#737f80"/><stop offset=".741" style="stop-color:#508097"/><stop offset=".902" style="stop-color:#2881a5"/><stop offset="1" style="stop-color:#0283ac"/></linearGradient><path d="M0 0h1600v900H0z" style="fill:url(#SVGID_1_)"/><path d="M1592.6 398.6s-271.2 3.8-288.7 0-187.2-20.9-209.8-31.4-58.9-3.8-7.4-11.3 96.7-13.3 111.7-14.8c15.1-1.5-13.8 6 40.2-9s90.4-6.3 32.6-24.5c-57.7-18.2-81.6-29.5-49-42.1s35.2-17.6 52.7-17.6-30.1-5 40.2 0 35.2 8.8 86.6 7.5 21.3 2.5 64 0 16.3-8.2 66.5-9.8c50.2-1.5 10-14.8 92.9 0s89.1 12.3 90.4 21.1 21.3 35.2-45.2 65.3c-66.4 30.2-77.7 66.6-77.7 66.6M800.1 132.4s79.1-38.9 123-38.9 213.4 10 313.8 19.5 62.8 32 0 33.3-212.2 51.5-173.2 47.7c38.9-3.8-17.6 17.6-69 21.3-51.5 3.8-161.9 1.3-220.9 6.3s-89.1 6.3-128 0S583 194 583 194s-67.8-32.2-31.4-34.3 43.9-5.9 72.8-8.4 87.9-11.3 92.9-11.3c5-.1 82.8-7.6 82.8-7.6M66.1 291.8s121.8 2.5 134.3 0c12.6-2.5 92.9-7.5 97.9-7.5s10-10-5 0S174 313.2 174 313.2s113-2.5 91.6 11.3c-21.3 13.8-52.7 15.1-97.9 22.6s-22.6 6.8-69 10.9 30.1-4.2-108 0-16.3-54.9-16.3-54.9z" class="st1"/><path d="M472.1 932.7c3.2-23.8 11.7-87.9 58.6-138.7 34.6-37.6 64.3-39.9 93.3-88.5 30.6-51.4 39.5-69.4 39.5-69.4 9.5-19.2 12.8-28.3 23.9-38.3 12.3-11 25.9-15.4 52.6-23.9 25.7-8.2 29.9-7.1 44.2-12 32.6-11.1 32.3-24 62.2-39.5 47.4-24.6 92-15 117.2-39.5 8.8-8.5 15.5-16.7 15.5-16.7 11.4-13.8 12.9-19.5 20.3-27.5 7.6-8.2 15.1-11.9 29.9-19.1 28.2-13.7 42.3-20.6 55-16.7 13.2 4 13.5 15.1 33.5 47.8 10.1 16.6 24.8 34.7 54.2 71 18.3 22.6 24.6 29 34.3 35.4 16.4 10.7 23 8.6 33.5 19.1 9.6 9.7 10.3 17.8 20.3 44.2 9.2 24.2 13.8 36.4 17.9 41.9 17.2 22.9 38.7 18.4 88.5 44.2 16.6 8.6 28.3 16.5 35.9 21.5 29.1 19.6 69.5 47.4 93.3 95.7 7.3 14.7 11.3 27.9 13.2 34.7 8 29.1 7.3 52.3 7.2 59.8-1.3 80.5 35.6 151.1 13.2 197.3-29 59.7-146.6 57.2-217.7 57.4-483.4 1.2-600.8 130.8-733.1 16.7-64.9-55.8-119.5-158.5-106.4-256.9" style="fill:#16434f"/><path d="M-29 666.1C3.5 591.7 45.7 541 91.8 485.5c71.2-85.7 95.7-86.7 106.4-82.5 15.1 5.8 9.1 24 27.5 52.6 26.3 40.8 57.3 33 119.6 82.5 16.8 13.3 35.7 28.4 55 53.8 30.6 40.3 26.1 59.2 58.6 94.5 8.9 9.6 7.2 6.1 50.2 44.2 37.4 33.2 40.2 37.2 51.4 46.6 69 57.7 116.9 33.3 162.6 87.3 6.6 7.8.1 1.8 33.5 57.4 48.1 80.1 59.8 89.4 67 94.5 29.8 20.9 41.6 9.2 75.3 35.9 4 3.1 25.2 20.3 39.5 50.2 6.3 13.3 12.1 25.7 7.2 35.9-7.9 16.4-38.7 16.6-46.6 16.7-168.8 3.7-773.3 236.7-950.8-13.2-114.7-161.5 8.2-442.4 22.8-475.8" style="fill:#072d3a"/><path d="M1615.4 435.2c-14.4-1.2-43.3 16.1-74.1 34.7-30.4 18.3-37.8 27.7-64.6 43.1-38.2 21.9-55.7 21.3-78.9 32.3-69.5 32.9-52.7 104.3-114.8 161.4-52.8 48.6-80 10.7-179.4 59.8-108.1 53.4-99 109.5-189 130.4-29 6.7-38.8 2.9-139.9 19.1-39.3 6.3-63 10.9-89.7 26.3-18.8 10.8-24.3 18.5-64.6 59.8-72.5 74.4-90.2 86.2-87.3 106.8.7 5.1 4.6 23.9 50.2 47.5 79.7 41.1 161.3 31.9 168.6 31.1 256.7-28.2 688.9 182.8 892.2-13.2 213-205.3 45.2-733.1-28.7-739.1" style="fill:#0f333d"/><linearGradient id="SVGID_00000103248185467387689450000010238609709256761018_" x1="516.553" x2="516.553" y1="279.82" y2="465.616" gradientUnits="userSpaceOnUse"><stop offset="0" style="stop-color:#ef9d41"/><stop offset=".927" style="stop-color:#ef9d41;stop-opacity:7.319725e-02"/><stop offset="1" style="stop-color:#ef9d41;stop-opacity:0"/></linearGradient><circle cx="516.6" cy="372.7" r="92.9" style="fill:url(#SVGID_00000103248185467387689450000010238609709256761018_)"/><path d="M343.5 251.6c8.3-1.2 16.5-2.5 24.8-3.7 4.2-.6 8.6-.3 12.7.9 6.4 1.9 12.8 3.8 19.2 5.8l4.3-20.3c.6-3 2.1-5.8 4.1-8.1l16.9-18.5-15.1 20.7c-1.9 2.6-3.2 5.6-3.7 8.8l-3.7 22.2-24-8.4c-2.5-.9-5.2-1.3-7.9-1.1-9.3.7-18.4 1.2-27.6 1.7M315 306.1c5.7-.9 11.5-1.7 17.2-2.6 3-.4 6-.2 8.8.6 4.4 1.3 8.9 2.7 13.3 4l3-14.1c.4-2.1 1.4-4 2.9-5.6l11.8-12.9-10.5 14.5c-1.3 1.8-2.2 3.9-2.6 6.1l-2.6 15.5c-5.6-1.9-11.1-3.9-16.7-5.8-1.8-.6-3.6-.9-5.5-.8-6.4.4-12.7.8-19.1 1.1M281.3 248.4c4.4-.7 8.9-1.3 13.3-2 2.3-.3 4.6-.2 6.8.5 3.4 1 6.9 2.1 10.3 3.1l2.3-10.9c.3-1.6 1.1-3.1 2.2-4.3l9.1-9.9-8.1 11.1c-1 1.4-1.7 3-2 4.7l-2 11.9-12.9-4.5q-2.1-.75-4.2-.6c-4.9.3-9.8.6-14.8.9" class="st6"/></g></svg>