<svg xmlns="http://www.w3.org/2000/svg" xml:space="preserve" width="800" height="800" viewBox="0 0 511.999 511.999"><path d="m423.968 360.911-34.616-19.642-12.157 12.157 19.642 34.616c2.904 6.775 11.251 9.372 17.4 5.306a53.2 53.2 0 0 0 15.038-15.038c4.065-6.148 1.469-14.496-5.307-17.399" style="fill:#6a9093"/><circle cx="383.029" cy="347.108" r="17.842" style="fill:#5b7676"/><path d="M348.717 60.659C279.378-8.68 166.681-8.404 97.002 61.274s-69.955 182.376-.615 251.715c73.881 73.881 187.725 89.275 278.886 38.712l.077-.043a30.96 30.96 0 0 0 12.036-12.036l.043-.077c50.563-91.161 35.169-205.005-38.712-278.886" style="fill:#6a9093"/><path d="M96.387 312.989c26.226 26.226 57.487 45.078 90.982 56.228 46.005 15.314 95.796-11.192 107.004-58.366q.172-.725.321-1.419c16.371-76.028-5.773-157.171-62.966-214.364-24.903-24.903-55.398-40.82-87.485-47.771-16.967-3.676-34.751 1.526-47.045 13.783l-.195.195c-69.681 69.678-69.956 182.375-.616 251.714" style="fill:#78abb1"/><ellipse cx="112.99" cy="196.684" rx="47.58" ry="71.37" style="fill:#92bcbc"/><circle cx="181.172" cy="238.483" r="17.842"/><circle cx="265.281" cy="154.373" r="17.842"/><path d="M206.407 263.711c-13.914 13.914-36.552 13.914-50.466 0a8.922 8.922 0 0 1 12.617-12.617c6.957 6.957 18.277 6.956 25.233 0a8.922 8.922 0 1 1 12.616 12.617" style="fill:#92bcbc"/><path d="M290.517 179.6c-3.484 3.484-9.132 3.484-12.617 0s-3.484-9.132 0-12.617c6.957-6.957 6.957-18.275 0-25.233-3.484-3.484-3.484-9.132 0-12.617s9.132-3.484 12.617 0c13.914 13.915 13.914 36.554 0 50.467" style="fill:#78abb1"/><path d="M442.485 397.58a8.92 8.92 0 0 0-12.447-2.06 8.92 8.92 0 0 0-2.059 12.447c19.978 27.903 30.537 60.792 30.537 95.111 0 4.927 3.993 8.921 8.921 8.921s8.921-3.994 8.921-8.921c-.001-38.066-11.713-74.547-33.873-105.498M436.419 383.133c3.379-5.111 4.306-11.423 2.542-17.317a20.83 20.83 0 0 0-11.776-13.205c-4.532-1.944-9.773.158-11.714 4.685a8.92 8.92 0 0 0 4.685 11.714 3 3 0 0 1 1.71 1.922c.174.583.259 1.465-.331 2.356a44.1 44.1 0 0 1-12.517 12.517c-.891.589-1.775.507-2.356.331a3 3 0 0 1-1.922-1.71l-4.126-9.629a33 33 0 0 0 5.493-4.421c6.177-6.178 9.58-14.393 9.58-23.13 0-8.738-3.402-16.952-9.579-23.127a32 32 0 0 0-.724-.704c18.108-41.145 24.395-86.001 18.195-131.012-7.264-52.734-30.97-100.472-68.552-138.054-72.71-72.706-191.286-72.429-264.333.617-35.379 35.379-54.931 82.354-55.053 132.271-.123 49.934 19.21 96.835 54.437 132.06 46.325 46.324 108.463 70.763 171.517 70.76 32.97-.001 66.201-6.686 97.532-20.419q.354.376.718.741c6.178 6.178 14.394 9.581 23.13 9.581.145 0 .288-.008.433-.011l4.932 11.508a20.83 20.83 0 0 0 13.207 11.775c1.959.586 3.967.875 5.961.875 3.999 0 7.943-1.163 11.354-3.419a61.8 61.8 0 0 0 17.557-17.555m-66.548-28.847a8.92 8.92 0 0 0-11.683-3.83c-85.86 40.776-188.533 23.184-255.492-43.775-31.845-31.845-49.323-74.248-49.212-119.401.111-45.168 17.807-87.678 49.828-119.698 33.157-33.157 76.673-49.748 120.114-49.748 43.145 0 86.22 16.37 118.982 49.132 70.446 70.446 85.751 180.754 37.219 268.251-2.39 4.308-.834 9.74 3.475 12.128 4.308 2.39 9.738.833 12.128-3.475q.705-1.27 1.393-2.546a14.8 14.8 0 0 1 1.22 5.923c0 3.972-1.546 7.706-4.355 10.514a14.77 14.77 0 0 1-10.514 4.355 14.77 14.77 0 0 1-10.513-4.355 15 15 0 0 1-2.59-3.475"/></svg>