<svg xmlns="http://www.w3.org/2000/svg" xml:space="preserve" width="800" height="800" viewBox="0 0 512.001 512.001"><path d="M144.037 218.045v224.801c0 38.914 56.325 59.275 111.963 59.275s111.963-20.36 111.963-59.275V218.045z" style="fill:#4e565a"/><path d="M256.001 218.045H144.037v189.937c6.162 4.845 13.55 9.472 22.44 13.679 21.331 10.094 48.333 16.22 77.085 17.595 6.981.335 12.438 6.162 12.438 13.151v49.713c55.638 0 111.963-20.36 111.963-59.275v-224.8z" style="fill:#3e474c"/><path d="M144.037 350.641c0 38.914 56.325 59.275 111.963 59.275s111.963-20.36 111.963-59.275v-27.219H144.037z" style="fill:#ada999"/><path d="M256.001 323.422v86.494c55.638 0 111.963-20.36 111.963-59.275v-27.219z" style="fill:#848075"/><path d="M48.539 274.901c0 49.104 92.883 88.912 207.461 88.912s207.461-39.808 207.461-88.912S370.578 185.989 256 185.989 48.539 225.797 48.539 274.901m115.257-9.879c0-21.825 41.282-39.516 92.205-39.516s92.205 17.692 92.205 39.516-41.281 39.516-92.205 39.516-92.205-17.691-92.205-39.516" style="fill:#4e565a"/><path d="M105.911 310.379c36.59 12.884 83.488 21.278 128.908 23.316 1.504.067 3.438.128 5.563.18 7.13.177 10.822-8.446 5.779-13.49l-17.63-17.63c-37.508-5.009-64.736-20.008-64.736-37.733 0-21.825 41.281-39.516 92.205-39.516V185.99c-114.575 0-207.456 39.805-207.461 88.908.151 2.568 10.728 19.057 57.372 35.481" style="fill:#5f6568"/><path d="M272.27 236.044c4.839-4.863 8.625-9.73 12.081-14.6a159 159 0 0 0 9.248-14.613c5.407-9.745 9.658-19.495 12.896-29.25 6.56-19.509 9.384-39.036 9.492-58.574.055-19.538-2.657-39.09-9.118-58.657-3.189-9.784-7.409-19.572-12.789-29.366-2.704-4.897-5.776-9.795-9.226-14.696l-.141-.199c-5.823-8.248-18.11-8.285-23.98-.07l-.115.161c-3.471 4.87-6.562 9.739-9.288 14.612-5.42 9.745-9.683 19.496-12.914 29.25-6.544 19.509-9.34 39.036-9.367 58.575.024 19.54 2.765 39.09 9.242 58.658 3.196 9.784 7.405 19.572 12.77 29.366 2.7 4.896 5.748 9.795 9.186 14.695s7.203 9.801 12.023 14.708" style="fill:#d5d2bd"/><path d="M262.97 81.771a9.88 9.88 0 0 1 9.601-7.556h.016a9.88 9.88 0 0 1 9.593 7.585c2.844 11.91 4.207 24.018 4.169 37.044-.071 12.89-1.469 24.84-4.276 36.533a9.88 9.88 0 0 1-9.606 7.573h-.017a9.88 9.88 0 0 1-9.597-7.604c-2.786-11.777-4.148-23.77-4.164-36.687.019-12.996 1.417-25.062 4.281-36.888" style="fill:#bd7155"/><path d="M282.345 199.162q-2.323 0-4.605.159c-12.874.893-25.038-5.804-30.766-17.367q-.289-.584-.582-1.163c-9.247-18.475-21.12-34.288-34.906-48.167-13.82-13.841-29.589-25.709-47.991-34.908-9.172-4.627-19.071-8.521-29.784-11.589-5.366-1.523-10.991-2.785-16.883-3.776l-.177-.03c-9.986-1.677-18.636 7.01-16.918 16.988l.053.31c1.025 5.924 2.316 11.577 3.863 16.97 3.118 10.763 7.051 20.7 11.709 29.903 9.259 18.463 21.152 34.257 34.993 48.078 13.877 13.785 29.665 25.632 48.078 34.818a167 167 0 0 0 17.124 7.441c3.351 1.241 5.082 4.872 4 8.277a65.7 65.7 0 0 0-3.073 19.916 65.54 65.54 0 0 0 11.877 37.708c8.727 1.174 18.009 1.809 27.639 1.809 50.924 0 92.205-17.691 92.205-39.516 0-18.187 1.849-41.238-10.07-53.156-11.919-11.919-37.599-12.705-55.786-12.705" style="fill:#e7e4cd"/><path d="M348.298 249.216c-.057-6.749-.406-13.549-1.674-19.758h-25.092c-5.457 0-9.879 4.423-9.879 9.879s4.422 9.879 9.879 9.879h1.976v.148c0 9.845-6.062 18.704-15.28 22.163-11.652 4.373-29.321 8.313-52.228 8.313-15.302 0-28.266-1.758-38.663-4.23a65.6 65.6 0 0 0 11.022 27.119c8.727 1.174 18.009 1.809 27.639 1.809 50.924 0 92.205-17.692 92.205-39.516.003-5.01.141-10.391.095-15.806" style="fill:#c1bdab"/><path d="M161.5 130.548A9.835 9.835 0 0 0 149.382 132l-.011.011a9.94 9.94 0 0 0-1.419 12.186c6.403 10.467 13.994 20.023 23.221 29.236 9.155 9.094 18.585 16.58 28.826 22.883a9.836 9.836 0 0 0 12.134-1.442l.012-.012a9.944 9.944 0 0 0 1.408-12.203c-6.352-10.331-13.86-19.804-22.974-28.979-9.192-9.208-18.702-16.774-29.079-23.132" style="fill:#ce9276"/><circle cx="269.173" cy="239.338" r="9.879" style="fill:#47423f"/><path d="m90.021 101.124.03.178c1.074 6.209 2.454 12.27 4.11 18.035 3.214 11.094 7.382 21.73 12.367 31.584 9.361 18.668 21.414 35.232 36.862 50.657 15.501 15.397 32.062 27.386 50.596 36.633a176 176 0 0 0 15.293 6.799 75.5 75.5 0 0 0-2.675 20.011 75.5 75.5 0 0 0 3.962 24.181c-23.315-6.153-36.893-16.322-36.893-24.181 0-2.744 1.586-5.689 4.714-8.756 3.895-3.82 3.957-10.074.137-13.97-3.821-3.898-10.075-3.954-13.97-.137-6.96 6.824-10.639 14.732-10.639 22.864 0 26.847 39.901 47.385 94.05 49.244q.598.022 1.196.041c2.258.066 4.531.111 6.836.111 58.198 0 102.084-21.235 102.084-49.396 0-2.076.025-4.216.05-6.396.204-17.942.461-40.27-13.013-53.746-8.023-8.022-19.777-11.98-33.049-13.898 1.373-3.406 2.65-6.83 3.787-10.253 6.612-19.67 9.886-39.842 10.007-61.694.062-21.788-3.084-41.997-9.604-61.747-3.425-10.505-7.973-20.954-13.533-31.081a170 170 0 0 0-9.751-15.543l-.192-.273C288.208 3.907 280.725.024 272.768 0h-.069c-7.931 0-15.404 3.838-19.937 10.185l-.186.258a169 169 0 0 0-9.879 15.547c-5.59 10.05-10.185 20.462-13.645 30.911-6.618 19.731-9.851 39.916-9.88 61.729.003 2.648.072 5.279.173 7.905-.291-.296-.576-.595-.869-.89-15.413-15.436-31.952-27.463-50.53-36.748-9.857-4.972-20.46-9.099-31.537-12.271-5.719-1.623-11.755-2.974-17.905-4.01l-.22-.036v-.001a24.63 24.63 0 0 0-21.457 6.906c-5.617 5.638-8.169 13.675-6.83 21.5zm148.91 17.508c.028-19.626 2.924-37.765 8.865-55.482 3.085-9.311 7.179-18.582 12.158-27.534 2.557-4.572 5.488-9.181 8.709-13.699l-8.043-5.735 8.152 5.581c1.243-1.741 2.987-2.005 3.925-2.005h.014c.937.003 2.691.27 3.881 1.953l.184.262c3.211 4.564 6.124 9.201 8.645 13.764 4.958 9.027 9.014 18.337 12.067 27.708 5.855 17.738 8.675 35.902 8.62 55.506-.109 19.688-3.045 37.837-8.989 55.515a155 155 0 0 1-2.328 6.465c-4.431-7.368-9.433-17.641-12.645-30.292-2.425-9.551-3.635-19.987-3.7-31.881-.033-11.415 1.153-22.003 3.629-32.371 1.267-5.307-2.007-10.637-7.314-11.904a9.876 9.876 0 0 0-11.904 7.314c-2.844 11.91-4.207 24.018-4.169 37.044.074 13.541 1.483 25.532 4.307 36.658 3.52 13.862 8.893 25.342 13.914 33.968-8.948.568-17.216-4.094-21.09-11.912l-.594-1.191a190 190 0 0 0-12.73-21.717c-2.34-11.534-3.548-23.645-3.564-36.015M110.824 93.43c.66-.663 2.077-1.714 4.198-1.363.047.008.119.021.167.028 5.474.922 10.799 2.113 15.803 3.533 9.863 2.825 19.302 6.497 28.087 10.929 16.675 8.334 31.531 19.146 45.398 33.032 13.894 13.988 24.715 28.912 33.103 45.669l.541 1.083a41 41 0 0 0 1.686 3.047h-4.534c-.582 0-1.171-.028-1.751-.082a18.7 18.7 0 0 1-4.738-1.058 112 112 0 0 1-18.562-8.865c-8.457-5.053-16.683-11.598-25.128-19.989-8.092-8.077-14.733-16.434-20.306-25.542-2.848-4.655-8.931-6.12-13.583-3.271-4.654 2.848-6.12 8.928-3.271 13.583 6.399 10.46 13.988 20.015 23.216 29.23 9.62 9.555 19.084 17.061 28.938 22.95a132 132 0 0 0 21.851 10.439 38.5 38.5 0 0 0 9.755 2.196c1.183.111 2.388.166 3.579.166h36.758c2.102.167 4.237.183 6.392.033 1.3-.09 2.62-.137 3.923-.137 11.668 0 38.995 0 48.805 9.809 2.59 2.59 4.259 6.287 5.347 10.608h-14.966c-5.457 0-9.879 4.423-9.879 9.879s4.422 9.879 9.879 9.879h16.885c.028 3.081-.005 6.171-.04 9.184a581 581 0 0 0-.051 6.623c0 12.084-32.072 29.637-82.326 29.637-1.752 0-3.499-.026-5.24-.07-.369-.009-.731-.025-1.099-.036-1.44-.045-2.877-.099-4.306-.173l-.858-.047a197 197 0 0 1-4.916-.332l-.1-.008a192 192 0 0 1-5.339-.51c-5.103-8.607-7.781-18.362-7.781-28.461 0-7.668 1.527-15.103 4.538-22.1a9.88 9.88 0 0 0-.068-7.967 9.87 9.87 0 0 0-5.926-5.325c-7.681-2.52-15.094-5.571-22.065-9.082-16.654-8.309-31.545-19.098-45.508-32.97-13.907-13.885-24.748-28.773-33.161-45.547-4.448-8.791-8.16-18.276-11.026-28.17-1.454-5.059-2.673-10.417-3.625-15.925l-.026-.149-.025-.14c-.361-2.124.694-3.554 1.355-4.218"/><circle cx="269.173" cy="239.338" r="9.879"/><path d="M360.393 187.876c-5.31-1.29-10.644 1.969-11.93 7.271-1.288 5.302 1.968 10.643 7.271 11.93 59.442 14.423 97.849 41.046 97.849 67.826 0 19.266-19.965 38.871-54.776 53.79-37.983 16.278-88.699 25.243-142.806 25.243s-104.824-8.965-142.806-25.243c-34.811-14.919-54.776-34.524-54.776-53.79 0-21.173 24.475-42.874 65.47-58.05 5.117-1.894 7.729-7.577 5.835-12.694s-7.575-7.733-12.694-5.835c-50.536 18.707-78.369 45.904-78.369 76.579 0 27.95 23.706 53.503 66.751 71.95 8.972 3.845 18.591 7.304 28.747 10.363v85.632c0 21.839 14.479 40.719 40.77 53.16 21.796 10.312 50.588 15.994 81.072 15.994s59.276-5.681 81.072-15.994c26.292-12.441 40.77-31.321 40.77-53.16v-85.633c10.154-3.059 19.775-6.518 28.746-10.361 43.047-18.448 66.752-44 66.752-71.95 0-37.336-42.225-69.869-112.948-87.028M256.001 492.242c-49.488 0-102.084-17.312-102.084-49.396v-52.308c5.063 4.315 11.071 8.256 17.994 11.781a9.84 9.84 0 0 0 4.473 1.077 9.88 9.88 0 0 0 8.811-5.401c2.475-4.862.54-10.81-4.322-13.285-8.925-4.544-19.092-11.585-23.997-21.533 30.254 6.868 64.068 10.513 99.124 10.513 35.077 0 68.909-3.649 99.176-10.525-11.672 24.039-56.574 36.869-99.176 36.869-12.807 0-25.367-1.104-37.33-3.28-5.376-.984-10.51 2.584-11.489 7.951-.976 5.368 2.583 10.511 7.951 11.489 13.129 2.388 26.876 3.599 40.867 3.599 30.484 0 59.276-5.681 81.072-15.995 8.173-3.867 15.203-8.358 21.012-13.364v52.411c.002 32.086-52.595 49.397-102.082 49.397"/></svg>