<svg
  xmlns="http://www.w3.org/2000/svg"
  xml:space="preserve"
  width="800"
  height="800"
  viewBox="0 0 511.997 511.997"
>

	<path
    d="m261.148 428.804-8.311 27.703c-2.823 9.406 2.516 19.319 11.922 22.141 9.405 2.823 19.318-2.517 22.141-11.922l8.613-28.713v-9.209zM323.214 438.905v46.42c0 9.82 7.961 17.782 17.782 17.782s17.782-7.961 17.782-17.782v-63.037h-35.563zM399.199 380.694l44.436 88.874c3.115 6.232 9.395 9.833 15.918 9.833 2.672 0 5.385-.605 7.938-1.881 8.784-4.392 12.344-15.073 7.952-23.857l-54.105-108.211h-22.139z"
    style="fill:#8d663d"
  /><path
    d="M252.838 456.507c-2.416 8.052 1.159 16.46 8.136 20.489 3.785-2.187 6.787-5.752 8.142-10.271l2.27-7.566-17.904-4.797zM323.214 485.325c0 6.577 3.58 12.306 8.888 15.382 5.308-3.076 8.888-8.805 8.888-15.382v-23.74c-5.936 2.048-11.872 3.507-17.778 4.36v19.38zM412.435 407.167l31.201 62.401a17.7 17.7 0 0 0 6.996 7.43c8.093-4.664 11.258-14.87 7.027-23.334l-32.049-64.097a281 281 0 0 1-12.141 16.337c-.342.426-.69.84-1.034 1.263"
    style="fill:#b69362"
  /><path
    d="m407.067 26.088-57.252-15.341L239.36 422.966 454.895 259.81c30.526-113.923 9.135-218.46-47.828-233.722"
    style="fill:#e7e4cd"
  /><path
    d="m294.588 216.857-55.226 206.109 57.252 15.341c56.962 15.263 127.755-64.572 158.282-178.496z"
    style="fill:#c1bdab"
  /><path
    d="M397.642 244.469c30.525-113.924 9.134-218.46-47.828-233.723S222.059 75.319 191.532 189.243s-9.134 218.46 47.828 233.723c56.962 15.262 127.757-64.573 158.282-178.497"
    style="fill:#ab5034"
  /><path
    d="M257.769 354.263c-37.975-10.175-52.235-79.866-31.885-155.815S293.431 69.276 331.405 79.451s52.235 79.866 31.885 155.815-67.546 129.172-105.521 118.997"
    style="fill:#e7e4cd"
  /><path
    d="M328.94 226.061c10.175-37.975 3.044-72.82-15.943-77.908s-42.585 21.524-52.761 59.499c-10.175 37.975-3.044 72.82 15.943 77.907s42.585-21.524 52.761-59.498"
    style="fill:#ab5034"
  /><path
    d="M349.814 10.747 239.36 422.966c56.962 15.263 127.756-64.572 158.282-178.496s9.134-218.46-47.828-233.723"
    style="opacity:.2;fill:#493023"
  /><path
    d="m94.732 196.353 21.939 7.128a11.85 11.85 0 0 0 13.2-4.233l17.048-23.286-15.034-16.785-14.889 7.017-24.002 11.715z"
    style="fill:#e7e4cd"
  /><path
    d="m86.931 156.425-22.42 14.314.156 15.846 30.065 9.768 22.264-30.16-15.176-16.784z"
    style="fill:#d5d2bd"
  /><path
    d="M56.582 146.657 44.228 163.61c-4.748 6.514-1.75 15.765 5.917 18.256l14.523 4.719 22.264-30.16L71.7 139.669z"
    style="fill:#e7e4cd"
  /><path
    d="m131.885 159.177-14.889 7.017-15.175-16.785-14.889 7.017-15.231-16.756-15.119 6.988-12.354 16.952c-4.748 6.514-1.75 15.765 5.917 18.256l14.523 4.719 30.064 9.768 21.939 7.128a11.85 11.85 0 0 0 13.2-4.233l17.048-23.286z"
    style="opacity:.2;fill:#47423f"
  /><path
    d="m116.79 128.708-11.697 8.848 11.981 28.638 29.845 9.768v-28.941a11.86 11.86 0 0 0-8.191-11.185z"
    style="fill:#d5d2bd"
  /><path
    d="m117.074 166.193-.284-37.485-30.064-9.769-10.532 14.604 10.816 22.882z"
    style="fill:#e7e4cd"
  /><path
    d="m86.726 118.939-14.547-4.726c-7.659-2.488-15.596 3.221-15.596 11.275v21.17l30.428 9.768z"
    style="fill:#d5d2bd"
  /><path
    d="m483.396 449.687-42.261-84.523c-2.195-4.391-7.536-6.171-11.928-3.976a8.89 8.89 0 0 0-3.976 11.929l42.261 84.523c2.192 4.384.408 9.735-3.978 11.929a8.8 8.8 0 0 1-3.959.942 8.86 8.86 0 0 1-7.966-4.92l-42.028-84.055c22.949-32.533 41.738-73.952 53.924-119.423 15.114-56.407 18.316-112.498 9.015-157.943-9.738-47.591-32.159-78.37-63.131-86.669l-57.252-15.34c-28.678-7.684-61.169 5.265-91.482 36.464-28.664 29.502-53.637 73.442-70.317 123.725a8.89 8.89 0 0 0 5.639 11.237c4.664 1.553 9.692-.978 11.238-5.639 15.853-47.789 39.36-89.316 66.193-116.932 25.625-26.371 51.949-37.619 74.127-31.681 24.126 6.465 41.994 32.411 50.312 73.058 8.757 42.793 5.642 95.986-8.771 149.776-14.413 53.792-38.311 101.415-67.292 134.095-27.526 31.043-55.972 44.574-80.101 38.114-21.933-5.877-39.011-28.407-48.085-63.437-9.497-36.66-9.407-83.678.255-132.393a8.89 8.89 0 0 0-6.992-10.45c-4.821-.958-9.495 2.175-10.451 6.991-10.171 51.285-10.179 101.115-.025 140.311 10.751 41.501 32.307 68.545 60.697 76.152l12.94 3.467-5.679 18.93c-4.226 14.087 3.796 28.985 17.882 33.213a26.8 26.8 0 0 0 7.699 1.138c4.354 0 8.668-1.079 12.61-3.201 6.273-3.379 10.855-8.996 12.902-15.82l2.562-8.538a8.89 8.89 0 0 0-5.96-11.071c-4.701-1.408-9.659 1.259-11.071 5.96l-2.562 8.538a8.84 8.84 0 0 1-4.301 5.273 8.82 8.82 0 0 1-6.769.688c-4.696-1.408-7.37-6.375-5.962-11.071l5.831-19.435 27.128 7.269a64.4 64.4 0 0 0 16.734 2.192c1.089 0 2.182-.037 3.277-.09v36.329c0 14.707 11.965 26.673 26.673 26.673s26.673-11.966 26.673-26.673v-38.231c0-4.911-3.981-8.891-8.891-8.891s-8.891 3.98-8.891 8.891v38.231c0 4.903-3.988 8.891-8.891 8.891s-8.891-3.988-8.891-8.891V445.87c20.064-6.005 40.616-20.368 60.215-42.47a231 231 0 0 0 5.231-6.122l38.132 76.263c4.549 9.097 13.695 14.748 23.87 14.748a26.8 26.8 0 0 0 11.915-2.821c13.155-6.574 18.506-22.626 11.928-35.781m-104.381-58.082c-19.05 21.483-38.54 34.571-56.735 38.458-.52.055-1.024.16-1.514.3-7.56 1.408-14.887 1.22-21.851-.645l-12.773-3.422c16.422-7.408 32.99-20.263 48.927-38.234 30.777-34.706 56.049-84.884 71.164-141.29s18.316-112.498 9.016-157.943c-4.816-23.535-12.738-42.95-23.257-57.576l12.776 3.424c24.127 6.465 41.996 32.411 50.313 73.059 8.757 42.793 5.642 95.986-8.771 149.776-12.134 45.285-30.992 86.197-53.944 117.505q-.299.363-.557.753c-4.141 5.596-8.408 10.889-12.794 15.835"
  /><path
    d="M220.957 219.414c-4.865-.76-9.397 2.571-10.147 7.424-10.865 70.125 7.5 126.056 44.658 136.011a46 46 0 0 0 11.936 1.565c18.491-.001 38.112-10.846 56.387-31.456 20.818-23.475 37.894-57.353 48.088-95.393 21.936-81.866 5.169-155.091-38.173-166.705-19.593-5.248-41.663 3.039-62.136 23.344-18.864 18.708-35.617 46.826-47.174 79.175-1.653 4.623.758 9.711 5.382 11.364a8.895 8.895 0 0 0 11.364-5.381c10.681-29.898 25.934-55.657 42.95-72.533 15.796-15.664 31.781-22.344 45.013-18.794 14.727 3.946 26.175 20.872 31.406 46.437 5.748 28.087 3.686 63.065-5.806 98.489-9.492 35.426-25.194 66.749-44.216 88.198-17.313 19.524-35.688 28.459-50.417 24.513-27.192-7.286-40.815-57.205-31.688-116.113.749-4.851-2.575-9.394-7.427-10.145"
  /><path
    d="M255.705 231.196h-.09c-4.869 0-8.841 3.924-8.888 8.803-.29 29.272 9.859 49.516 27.151 54.149 2.367.634 4.76.942 7.164.942 22.461 0 45.821-26.926 56.485-66.728 5.272-19.675 6.368-39.339 3.087-55.371-3.72-18.178-12.712-30.049-25.316-33.425-19.875-5.324-41.947 12.175-56.226 44.587a8.89 8.89 0 0 0 4.552 11.721 8.89 8.89 0 0 0 11.72-4.552c11.275-25.593 26.631-36.918 35.351-34.581 5.677 1.521 10.232 8.744 12.498 19.816 2.738 13.38 1.728 30.145-2.843 47.202a129 129 0 0 1-.869 3.089c-.1.34-.206.673-.308 1.011-.204.672-.407 1.345-.618 2.007-.128.399-.262.791-.392 1.187-.194.59-.389 1.181-.59 1.763-.143.414-.292.819-.437 1.228-.198.552-.395 1.105-.597 1.648-.155.415-.314.823-.472 1.233q-.303.79-.613 1.568-.247.611-.498 1.215-.314.76-.633 1.508a133 133 0 0 1-1.712 3.799 115 115 0 0 1-1.93 3.888c-.187.358-.373.717-.562 1.069q-.362.672-.728 1.331a96 96 0 0 1-.564 1.012c-.253.443-.507.876-.762 1.309-.186.315-.371.634-.558.944-.27.446-.543.881-.816 1.315-.175.281-.351.565-.528.842-.299.466-.601.918-.903 1.369-.155.231-.308.469-.464.698a79 79 0 0 1-1.188 1.689c-.065.091-.13.187-.196.277a73 73 0 0 1-1.406 1.875c-.122.158-.245.306-.367.461-.347.442-.695.881-1.043 1.304-.173.21-.346.408-.519.612-.3.354-.6.709-.9 1.049-.191.217-.383.423-.575.634a55 55 0 0 1-.85.922c-.2.212-.402.414-.603.62-.275.281-.549.561-.824.829-.206.202-.413.395-.619.59q-.404.383-.806.748a52 52 0 0 1-1.422 1.228q-.313.259-.626.506a37 37 0 0 1-1.413 1.067q-.39.278-.778.537-.31.21-.62.409-.39.246-.774.472c-.202.12-.404.241-.606.353-.26.145-.517.276-.774.408-.196.1-.392.204-.588.296-.26.123-.517.231-.773.34-.189.081-.378.166-.565.239-.266.103-.529.19-.791.277-.173.058-.349.124-.519.175-.295.088-.586.155-.875.223-.135.032-.273.073-.407.101q-.626.127-1.236.191c-.133.013-.262.012-.395.021-.273.019-.545.039-.813.038a10 10 0 0 1-.903-.056c-.113-.011-.23-.009-.341-.024a9 9 0 0 1-1.197-.235c-8.42-2.256-14.166-17.388-13.973-36.797a8.895 8.895 0 0 0-8.806-8.975"
  /><path
    d="m296.364 216.084-140.381-46.325-.238-31.349a8.89 8.89 0 0 0-8.89-8.823h-.069a8.89 8.89 0 0 0-8.823 8.958l.192 25.332-12.239-4.039-.237-31.196a8.89 8.89 0 0 0-8.89-8.823h-.069a8.89 8.89 0 0 0-8.823 8.958l.191 25.179-12.239-4.039-.236-31.042a8.89 8.89 0 0 0-8.89-8.823h-.069a8.89 8.89 0 0 0-8.823 8.958l.19 25.025-12.473-4.116V109.17c0-4.911-3.981-8.891-8.891-8.891s-8.891 3.98-8.891 8.891v34.591L27.494 171.58a8.89 8.89 0 0 0 1.949 12.422 8.85 8.85 0 0 0 5.229 1.706 8.88 8.88 0 0 0 7.192-3.656l18.346-25.174 12.393 4.09-15.013 20.337a8.891 8.891 0 0 0 14.306 10.56l18.479-25.033 12.202 4.027-14.922 20.214a8.891 8.891 0 0 0 14.307 10.56l18.389-24.91 12.201 4.026-14.831 20.091a8.891 8.891 0 0 0 14.307 10.56l18.297-24.786 140.466 46.353a8.9 8.9 0 0 0 2.788.45 8.89 8.89 0 0 0 2.785-17.333"
  />
</svg>
