<?xml version="1.0" encoding="UTF-8" standalone="no"?>
<!-- Created with Inkscape (http://www.inkscape.org/) -->

<svg
   version="1.1"
   id="svg1"
   width="497.23999"
   height="270.09332"
   viewBox="0 0 497.23999 270.09332"
   sodipodi:docname="TMU-rgb.eps"
   xmlns:inkscape="http://www.inkscape.org/namespaces/inkscape"
   xmlns:sodipodi="http://sodipodi.sourceforge.net/DTD/sodipodi-0.dtd"
   xmlns="http://www.w3.org/2000/svg"
   xmlns:svg="http://www.w3.org/2000/svg">
  <defs
     id="defs1" />
  <sodipodi:namedview
     id="namedview1"
     pagecolor="#ffffff"
     bordercolor="#000000"
     borderopacity="0.25"
     inkscape:showpageshadow="2"
     inkscape:pageopacity="0.0"
     inkscape:pagecheckerboard="0"
     inkscape:deskcolor="#d1d1d1">
    <inkscape:page
       x="0"
       y="0"
       inkscape:label="1"
       id="page1"
       width="497.23999"
       height="270.09332"
       margin="0"
       bleed="0" />
  </sodipodi:namedview>
  <g
     id="g1"
     inkscape:groupmode="layer"
     inkscape:label="1">
    <g
       id="group-R5">
      <path
         id="path2"
         d="M 3729.25,259.309 H 2572.55 V 2025.74 h 1156.7 V 259.309"
         style="fill:#f9dc05;fill-opacity:1;fill-rule:nonzero;stroke:none"
         transform="matrix(0.13333333,0,0,-0.13333333,0,270.09333)" />
      <path
         id="path3"
         d="M 3470.1,0 H 0 V 1766.43 H 3470.1 V 0"
         style="fill:#254a9d;fill-opacity:1;fill-rule:nonzero;stroke:none"
         transform="matrix(0.13333333,0,0,-0.13333333,0,270.09333)" />
      <path
         id="path4"
         d="M 522.297,1495.5 H 419.164 l -5.156,-5.16 v -288.77 l -5.156,-5.15 h -61.875 l -5.157,5.15 v 288.77 l -5.16,5.16 H 233.531 l -5.156,5.15 v 51.56 l 5.156,5.16 h 288.766 l 5.156,-5.16 v -51.56 l -5.156,-5.15"
         style="fill:#ffffff;fill-opacity:1;fill-rule:nonzero;stroke:none"
         transform="matrix(0.13333333,0,0,-0.13333333,0,270.09333)" />
      <path
         id="path5"
         d="m 611.395,1397.52 c -36.098,0 -56.723,-25.78 -56.723,-72.19 0,-46.4 20.625,-72.19 56.723,-72.19 36.093,0 56.718,25.79 56.718,72.19 0,46.41 -20.625,72.19 -56.718,72.19 z m 0,-206.26 c -77.348,0 -128.915,51.56 -128.915,134.07 0,82.51 51.567,134.07 128.915,134.07 77.347,0 128.91,-51.56 128.91,-134.07 0,-82.51 -51.563,-134.07 -128.91,-134.07"
         style="fill:#ffffff;fill-opacity:1;fill-rule:nonzero;stroke:none"
         transform="matrix(0.13333333,0,0,-0.13333333,0,270.09333)" />
      <path
         id="path6"
         d="m 950.063,1392.36 h -36.094 c -41.254,0 -56.723,-20.62 -56.723,-67.03 v -123.76 l -5.156,-5.15 h -61.879 l -5.156,5.15 v 247.52 l 5.156,5.15 h 56.723 l 5.156,-5.15 5.156,-15.48 h 5.156 c 0,0 10.313,20.63 56.723,20.63 h 30.938 l 5.156,-5.15 v -51.57 l -5.156,-5.16"
         style="fill:#ffffff;fill-opacity:1;fill-rule:nonzero;stroke:none"
         transform="matrix(0.13333333,0,0,-0.13333333,0,270.09333)" />
      <path
         id="path7"
         d="m 1092.78,1397.52 c -36.09,0 -56.72,-25.78 -56.72,-72.19 0,-46.4 20.63,-72.19 56.72,-72.19 36.1,0 56.72,25.79 56.72,72.19 0,46.41 -20.62,72.19 -56.72,72.19 z m 0,-206.26 c -77.34,0 -128.909,51.56 -128.909,134.07 0,82.51 51.569,134.07 128.909,134.07 77.35,0 128.91,-51.56 128.91,-134.07 0,-82.51 -51.56,-134.07 -128.91,-134.07"
         style="fill:#ffffff;fill-opacity:1;fill-rule:nonzero;stroke:none"
         transform="matrix(0.13333333,0,0,-0.13333333,0,270.09333)" />
      <path
         id="path8"
         d="m 1502.26,1196.42 h -61.88 l -5.16,5.15 v 149.54 c 0,25.78 -10.31,46.41 -41.25,46.41 -36.09,0 -56.72,-20.63 -56.72,-67.03 v -128.92 l -5.16,-5.15 h -61.87 l -5.16,5.15 v 247.52 l 5.16,5.15 h 56.72 l 5.15,-5.15 5.16,-15.48 h 5.16 c 10.31,10.32 30.94,25.79 67.03,25.79 61.88,0 97.98,-41.25 97.98,-103.13 v -154.7 l -5.16,-5.15"
         style="fill:#ffffff;fill-opacity:1;fill-rule:nonzero;stroke:none"
         transform="matrix(0.13333333,0,0,-0.13333333,0,270.09333)" />
      <path
         id="path9"
         d="m 1655.29,1273.76 c 0,-10.31 5.16,-15.46 15.47,-15.46 h 46.41 l 5.16,-5.16 v -51.57 l -5.16,-5.15 h -46.41 c -46.4,0 -87.66,20.62 -87.66,77.34 v 113.45 l -5.16,5.15 h -36.09 l -5.16,5.16 v 51.57 l 5.16,5.15 h 36.09 l 5.16,5.16 v 46.41 l 5.16,5.15 h 61.88 l 5.15,-5.15 v -46.41 l 5.16,-5.16 h 56.72 l 5.16,-5.15 v -51.57 l -5.16,-5.16 h -56.72 l -5.16,-5.15 v -113.45"
         style="fill:#ffffff;fill-opacity:1;fill-rule:nonzero;stroke:none"
         transform="matrix(0.13333333,0,0,-0.13333333,0,270.09333)" />
      <path
         id="path10"
         d="m 1875.37,1397.52 c -36.09,0 -56.72,-25.78 -56.72,-72.19 0,-46.4 20.63,-72.19 56.72,-72.19 36.09,0 56.72,25.79 56.72,72.19 0,46.41 -20.63,72.19 -56.72,72.19 z m 0,-206.26 c -77.35,0 -128.91,51.56 -128.91,134.07 0,82.51 51.56,134.07 128.91,134.07 77.34,0 128.91,-51.56 128.91,-134.07 0,-82.51 -51.57,-134.07 -128.91,-134.07"
         style="fill:#ffffff;fill-opacity:1;fill-rule:nonzero;stroke:none"
         transform="matrix(0.13333333,0,0,-0.13333333,0,270.09333)" />
      <path
         id="path11"
         d="m 548.078,398.75 c 0,-92.82 -51.566,-144.391 -144.383,-144.391 -92.816,0 -144.382,51.571 -144.382,144.391 v 216.57 l 5.16,5.149 h 61.875 l 5.156,-5.149 V 398.75 c 0,-51.57 20.629,-82.512 72.191,-82.512 51.567,0 72.192,30.942 72.192,82.512 v 216.57 l 5.156,5.149 h 61.879 l 5.156,-5.149 V 398.75"
         style="fill:#ffffff;fill-opacity:1;fill-rule:nonzero;stroke:none"
         transform="matrix(0.13333333,0,0,-0.13333333,0,270.09333)" />
      <path
         id="path12"
         d="m 837.758,259.52 h -61.879 l -5.156,5.16 v 149.539 c 0,25.781 -10.313,46.402 -41.25,46.402 -36.094,0 -56.723,-20.621 -56.723,-67.031 V 264.68 l -5.156,-5.16 h -61.879 l -5.156,5.16 v 247.511 l 5.156,5.161 h 56.723 l 5.156,-5.161 5.156,-15.472 h 5.156 c 10.313,10.32 30.942,25.781 67.035,25.781 61.879,0 97.973,-41.25 97.973,-103.129 V 264.68 l -5.156,-5.16"
         style="fill:#ffffff;fill-opacity:1;fill-rule:nonzero;stroke:none"
         transform="matrix(0.13333333,0,0,-0.13333333,0,270.09333)" />
      <path
         id="path13"
         d="m 965.008,259.52 h -61.879 l -5.156,5.16 v 247.511 l 5.156,5.161 h 61.879 l 5.156,-5.161 V 264.68 Z m 0,299.082 h -61.879 l -5.156,5.16 v 51.558 l 5.156,5.149 h 61.879 l 5.156,-5.149 v -51.558 l -5.156,-5.16"
         style="fill:#ffffff;fill-opacity:1;fill-rule:nonzero;stroke:none"
         transform="matrix(0.13333333,0,0,-0.13333333,0,270.09333)" />
      <path
         id="path14"
         d="m 1167.03,264.68 -5.16,-5.16 h -56.72 l -5.16,5.16 -87.66,195.941 v 51.57 l 5.16,5.161 h 46.41 l 5.16,-5.161 61.87,-159.851 h 5.16 l 61.88,159.851 5.16,5.161 h 46.4 l 5.16,-5.161 v -51.57 L 1167.03,264.68"
         style="fill:#ffffff;fill-opacity:1;fill-rule:nonzero;stroke:none"
         transform="matrix(0.13333333,0,0,-0.13333333,0,270.09333)" />
      <path
         id="path15"
         d="m 1451.56,419.371 c 0,5.16 -5.16,41.25 -46.41,41.25 -41.25,0 -46.41,-36.09 -46.41,-41.25 l 5.16,-5.152 h 82.5 z m 77.35,-51.562 -5.16,-5.161 H 1363.9 l -5.16,-5.148 c 0,-10.32 10.31,-41.262 51.57,-41.262 15.47,0 30.93,5.16 36.09,15.473 l 5.16,5.148 h 61.87 l 5.17,-5.148 c -5.17,-30.941 -30.95,-77.352 -108.29,-77.352 -87.66,0 -128.92,61.879 -128.92,134.071 0,72.191 41.26,134.07 123.76,134.07 82.5,0 123.76,-61.879 123.76,-134.07 v -20.621"
         style="fill:#ffffff;fill-opacity:1;fill-rule:nonzero;stroke:none"
         transform="matrix(0.13333333,0,0,-0.13333333,0,270.09333)" />
      <path
         id="path16"
         d="m 1736.08,455.469 h -36.09 c -41.25,0 -56.72,-20.629 -56.72,-67.039 V 264.68 l -5.16,-5.16 h -61.88 l -5.16,5.16 v 247.511 l 5.16,5.161 h 56.73 l 5.15,-5.161 5.16,-15.472 h 5.15 c 0,0 10.32,20.633 56.72,20.633 h 30.94 l 5.16,-5.161 v -51.57 l -5.16,-5.152"
         style="fill:#ffffff;fill-opacity:1;fill-rule:nonzero;stroke:none"
         transform="matrix(0.13333333,0,0,-0.13333333,0,270.09333)" />
      <path
         id="path17"
         d="m 1878.8,254.359 c -72.19,0 -113.44,36.102 -113.44,87.661 l 5.16,5.16 h 61.88 l 5.15,-5.16 c 0,-20.622 15.47,-25.782 41.25,-25.782 25.79,0 41.26,5.16 41.26,20.621 0,20.641 -20.63,20.641 -51.57,25.789 -30.94,5.161 -97.97,20.633 -97.97,82.5 0,41.25 30.93,77.352 108.28,77.352 61.88,0 108.29,-25.781 108.29,-77.352 L 1981.93,440 h -61.87 l -5.16,5.148 c 0,10.321 -10.31,15.473 -36.1,15.473 -25.78,0 -36.09,-5.152 -36.09,-20.621 0,-20.629 30.94,-20.629 61.88,-25.781 30.93,-5.16 87.65,-15.469 87.65,-77.36 0,-41.25 -30.93,-82.5 -113.44,-82.5"
         style="fill:#ffffff;fill-opacity:1;fill-rule:nonzero;stroke:none"
         transform="matrix(0.13333333,0,0,-0.13333333,0,270.09333)" />
      <path
         id="path18"
         d="m 2101.45,259.52 h -61.88 l -5.15,5.16 v 247.511 l 5.15,5.161 h 61.88 l 5.16,-5.161 V 264.68 Z m 0,299.082 h -61.88 l -5.15,5.16 v 51.558 l 5.15,5.149 h 61.88 l 5.16,-5.149 v -51.558 l -5.16,-5.16"
         style="fill:#ffffff;fill-opacity:1;fill-rule:nonzero;stroke:none"
         transform="matrix(0.13333333,0,0,-0.13333333,0,270.09333)" />
      <path
         id="path19"
         d="m 2264.8,336.859 c 0,-10.308 5.16,-15.461 15.47,-15.461 h 46.41 l 5.15,-5.16 V 264.68 l -5.15,-5.16 h -46.41 c -46.4,0 -87.66,20.628 -87.66,77.339 v 113.45 l -5.16,5.16 h -36.09 l -5.16,5.152 v 51.57 l 5.16,5.161 h 36.09 l 5.16,5.148 v 46.41 l 5.15,5.16 h 61.89 l 5.15,-5.16 V 522.5 l 5.16,-5.148 h 56.72 l 5.15,-5.161 v -51.57 l -5.15,-5.152 h -56.72 l -5.16,-5.16 v -113.45"
         style="fill:#ffffff;fill-opacity:1;fill-rule:nonzero;stroke:none"
         transform="matrix(0.13333333,0,0,-0.13333333,0,270.09333)" />
      <path
         id="path20"
         d="m 2526.12,254.359 c -20.62,-51.558 -41.25,-82.5 -113.44,-82.5 h -25.79 l -5.15,5.161 v 51.558 l 5.15,5.16 h 25.79 c 25.78,0 30.94,5.16 36.1,20.621 v 5.161 l -82.51,201.101 v 51.57 l 5.16,5.161 h 46.4 l 5.16,-5.161 61.88,-175.332 h 5.16 l 61.87,175.332 5.16,5.161 h 46.41 l 5.16,-5.161 v -51.57 l -82.51,-206.262"
         style="fill:#ffffff;fill-opacity:1;fill-rule:nonzero;stroke:none"
         transform="matrix(0.13333333,0,0,-0.13333333,0,270.09333)" />
      <path
         id="path21"
         d="m 615.113,727.969 h -61.879 l -5.156,5.16 V 929.66 h -5.156 l -69.363,-196.531 -5.157,-5.16 H 411.68 l -5.157,5.16 -69.863,196.531 h -5.156 V 733.129 l -5.156,-5.16 h -61.875 l -5.16,5.16 v 350.641 l 5.16,5.15 h 77.347 l 5.157,-5.15 90.793,-252.668 h 5.156 l 89.683,252.668 5.157,5.15 h 77.347 l 5.157,-5.15 V 733.129 l -5.157,-5.16"
         style="fill:#ffffff;fill-opacity:1;fill-rule:nonzero;stroke:none"
         transform="matrix(0.13333333,0,0,-0.13333333,0,270.09333)" />
      <path
         id="path22"
         d="m 834.508,887.82 c 0,5.16 -5.156,41.25 -46.406,41.25 -41.254,0 -46.411,-36.09 -46.411,-41.25 l 5.157,-5.16 h 82.504 z m 77.347,-51.558 -5.156,-5.16 H 746.848 l -5.157,-5.153 c 0,-10.32 10.313,-41.258 51.567,-41.258 15.469,0 30.937,5.149 36.094,15.469 l 5.156,5.149 h 61.879 l 5.156,-5.149 c -5.156,-30.941 -30.938,-77.351 -108.285,-77.351 -87.66,0 -128.914,61.882 -128.914,134.07 0,72.191 41.254,134.07 123.758,134.07 82.503,0 123.753,-61.879 123.753,-134.07 v -20.617"
         style="fill:#ffffff;fill-opacity:1;fill-rule:nonzero;stroke:none"
         transform="matrix(0.13333333,0,0,-0.13333333,0,270.09333)" />
      <path
         id="path23"
         d="m 1049.43,805.309 c 0,-10.309 5.15,-15.469 15.46,-15.469 h 46.41 l 5.16,-5.149 v -51.562 l -5.16,-5.16 h -46.41 c -46.41,0 -87.656,20.621 -87.656,77.34 v 113.453 l -5.156,5.148 H 935.98 l -5.156,5.16 v 51.571 l 5.156,5.16 h 36.098 l 5.156,5.148 v 46.411 l 5.157,5.16 h 61.879 l 5.16,-5.16 v -46.411 l 5.15,-5.148 h 56.72 l 5.16,-5.16 V 929.07 l -5.16,-5.16 h -56.72 l -5.15,-5.148 V 805.309"
         style="fill:#ffffff;fill-opacity:1;fill-rule:nonzero;stroke:none"
         transform="matrix(0.13333333,0,0,-0.13333333,0,270.09333)" />
      <path
         id="path24"
         d="m 1331.37,923.91 h -36.09 c -41.26,0 -56.72,-20.621 -56.72,-67.031 v -123.75 l -5.16,-5.16 h -61.88 l -5.16,5.16 v 247.512 l 5.16,5.16 h 56.72 l 5.16,-5.16 5.16,-15.481 h 5.15 c 0,0 10.31,20.641 56.72,20.641 h 30.94 l 5.16,-5.16 V 929.07 l -5.16,-5.16"
         style="fill:#ffffff;fill-opacity:1;fill-rule:nonzero;stroke:none"
         transform="matrix(0.13333333,0,0,-0.13333333,0,270.09333)" />
      <path
         id="path25"
         d="m 1474.1,929.07 c -36.1,0 -56.73,-25.781 -56.73,-72.191 0,-46.41 20.63,-72.188 56.73,-72.188 36.09,0 56.71,25.778 56.71,72.188 0,46.41 -20.62,72.191 -56.71,72.191 z m 0,-206.261 c -77.35,0 -128.92,51.57 -128.92,134.07 0,82.5 51.57,134.07 128.92,134.07 77.34,0 128.91,-51.57 128.91,-134.07 0,-82.5 -51.57,-134.07 -128.91,-134.07"
         style="fill:#ffffff;fill-opacity:1;fill-rule:nonzero;stroke:none"
         transform="matrix(0.13333333,0,0,-0.13333333,0,270.09333)" />
      <path
         id="path26"
         d="m 1775.29,929.07 c -41.25,0 -56.72,-30.941 -56.72,-72.191 0,-41.25 15.47,-72.188 56.72,-72.188 41.25,0 56.72,30.938 56.72,72.188 0,41.25 -15.47,72.191 -56.72,72.191 z m 15.47,-206.261 c -46.41,0 -67.03,25.781 -67.03,25.781 h -5.16 V 625.629 l -5.16,-5.16 h -61.88 l -5.16,5.16 v 355.012 l 5.16,5.16 h 56.73 l 5.15,-5.16 5.16,-15.481 h 5.16 c 0,0 20.62,25.789 67.03,25.789 61.87,0 113.44,-51.57 113.44,-134.07 0,-82.5 -51.57,-134.07 -113.44,-134.07"
         style="fill:#ffffff;fill-opacity:1;fill-rule:nonzero;stroke:none"
         transform="matrix(0.13333333,0,0,-0.13333333,0,270.09333)" />
      <path
         id="path27"
         d="m 2062.4,929.07 c -36.1,0 -56.72,-25.781 -56.72,-72.191 0,-46.41 20.62,-72.188 56.72,-72.188 36.09,0 56.71,25.778 56.71,72.188 0,46.41 -20.62,72.191 -56.71,72.191 z m 0,-206.261 c -77.36,0 -128.92,51.57 -128.92,134.07 0,82.5 51.56,134.07 128.92,134.07 77.34,0 128.91,-51.57 128.91,-134.07 0,-82.5 -51.57,-134.07 -128.91,-134.07"
         style="fill:#ffffff;fill-opacity:1;fill-rule:nonzero;stroke:none"
         transform="matrix(0.13333333,0,0,-0.13333333,0,270.09333)" />
      <path
         id="path28"
         d="m 2301.71,727.969 h -61.88 l -5.16,5.16 v 350.641 l 5.16,5.15 h 61.88 l 5.16,-5.15 V 733.129 l -5.16,-5.16"
         style="fill:#ffffff;fill-opacity:1;fill-rule:nonzero;stroke:none"
         transform="matrix(0.13333333,0,0,-0.13333333,0,270.09333)" />
      <path
         id="path29"
         d="m 2434.12,727.969 h -61.88 l -5.15,5.16 v 247.512 l 5.15,5.16 h 61.88 l 5.16,-5.16 V 733.129 Z m 0,299.081 h -61.88 l -5.15,5.15 v 51.57 l 5.15,5.15 h 61.88 l 5.16,-5.15 v -51.57 l -5.16,-5.15"
         style="fill:#ffffff;fill-opacity:1;fill-rule:nonzero;stroke:none"
         transform="matrix(0.13333333,0,0,-0.13333333,0,270.09333)" />
      <path
         id="path30"
         d="m 2597.47,805.309 c 0,-10.309 5.15,-15.469 15.46,-15.469 h 46.41 l 5.16,-5.149 v -51.562 l -5.16,-5.16 h -46.41 c -46.4,0 -87.66,20.621 -87.66,77.34 v 113.453 l -5.16,5.148 h -36.09 l -5.16,5.16 v 51.571 l 5.16,5.16 h 36.09 l 5.16,5.148 v 46.411 l 5.16,5.16 h 61.88 l 5.16,-5.16 v -46.411 l 5.15,-5.148 h 56.72 l 5.16,-5.16 V 929.07 l -5.16,-5.16 h -56.72 l -5.15,-5.148 V 805.309"
         style="fill:#ffffff;fill-opacity:1;fill-rule:nonzero;stroke:none"
         transform="matrix(0.13333333,0,0,-0.13333333,0,270.09333)" />
      <path
         id="path31"
         d="m 2843.32,836.262 c 0,0 -10.31,5.148 -30.94,5.148 -30.93,0 -46.4,-10.308 -46.4,-30.941 0,-15.469 10.31,-25.778 36.09,-25.778 25.78,0 46.41,15.469 46.41,36.098 v 10.313 z m 72.19,-108.293 h -56.72 l -5.16,5.16 -5.15,10.312 h -5.16 c 0,0 -20.62,-20.632 -56.72,-20.632 -56.72,0 -92.82,30.941 -92.82,82.5 0,77.351 72.2,87.671 113.45,87.671 20.62,0 36.09,-5.16 36.09,-5.16 l 5.16,5.16 v 5.149 c 0,25.781 -5.16,30.941 -36.1,30.941 -15.46,0 -30.93,0 -36.09,-15.468 l -5.16,-5.153 h -61.88 l -5.15,5.153 c 0,30.937 25.78,77.347 108.28,77.347 82.5,0 108.29,-41.25 108.29,-118.597 V 733.129 l -5.16,-5.16"
         style="fill:#ffffff;fill-opacity:1;fill-rule:nonzero;stroke:none"
         transform="matrix(0.13333333,0,0,-0.13333333,0,270.09333)" />
      <path
         id="path32"
         d="m 3210.87,727.969 h -61.88 l -5.16,5.16 V 882.66 c 0,25.789 -10.31,46.41 -41.25,46.41 -36.09,0 -56.72,-20.621 -56.72,-67.031 v -128.91 l -5.15,-5.16 h -61.88 l -5.16,5.16 v 247.512 l 5.16,5.16 h 56.72 l 5.16,-5.16 5.15,-15.481 h 5.16 c 10.31,10.32 30.94,25.789 67.03,25.789 61.88,0 97.98,-41.25 97.98,-103.129 V 733.129 l -5.16,-5.16"
         style="fill:#ffffff;fill-opacity:1;fill-rule:nonzero;stroke:none"
         transform="matrix(0.13333333,0,0,-0.13333333,0,270.09333)" />
    </g>
  </g>
</svg>
