<svg xmlns="http://www.w3.org/2000/svg" width="497.24" height="270.093" viewBox="0 0 497.24 270.093"><path d="M3729.25 259.309h-1156.7V2025.74h1156.7z" style="fill:#f9dc05;fill-opacity:1;fill-rule:nonzero;stroke:none" transform="matrix(.13333 0 0 -.13333 0 270.093)"/><path d="M3470.1 0H0v1766.43h3470.1z" style="fill:#254a9d;fill-opacity:1;fill-rule:nonzero;stroke:none" transform="matrix(.13333 0 0 -.13333 0 270.093)"/><path d="M522.297 1495.5H419.164l-5.156-5.16v-288.77l-5.156-5.15h-61.875l-5.157 5.15v288.77l-5.16 5.16H233.531l-5.156 5.15v51.56l5.156 5.16h288.766l5.156-5.16v-51.56zM611.395 1397.52c-36.098 0-56.723-25.78-56.723-72.19 0-46.4 20.625-72.19 56.723-72.19 36.093 0 56.718 25.79 56.718 72.19 0 46.41-20.625 72.19-56.718 72.19m0-206.26c-77.348 0-128.915 51.56-128.915 134.07s51.567 134.07 128.915 134.07 128.91-51.56 128.91-134.07-51.563-134.07-128.91-134.07M950.063 1392.36h-36.094c-41.254 0-56.723-20.62-56.723-67.03v-123.76l-5.156-5.15h-61.879l-5.156 5.15v247.52l5.156 5.15h56.723l5.156-5.15 5.156-15.48h5.156s10.313 20.63 56.723 20.63h30.938l5.156-5.15v-51.57zM1092.78 1397.52c-36.09 0-56.72-25.78-56.72-72.19 0-46.4 20.63-72.19 56.72-72.19 36.1 0 56.72 25.79 56.72 72.19 0 46.41-20.62 72.19-56.72 72.19m0-206.26c-77.34 0-128.909 51.56-128.909 134.07s51.569 134.07 128.909 134.07c77.35 0 128.91-51.56 128.91-134.07s-51.56-134.07-128.91-134.07M1502.26 1196.42h-61.88l-5.16 5.15v149.54c0 25.78-10.31 46.41-41.25 46.41-36.09 0-56.72-20.63-56.72-67.03v-128.92l-5.16-5.15h-61.87l-5.16 5.15v247.52l5.16 5.15h56.72l5.15-5.15 5.16-15.48h5.16c10.31 10.32 30.94 25.79 67.03 25.79 61.88 0 97.98-41.25 97.98-103.13v-154.7zM1655.29 1273.76c0-10.31 5.16-15.46 15.47-15.46h46.41l5.16-5.16v-51.57l-5.16-5.15h-46.41c-46.4 0-87.66 20.62-87.66 77.34v113.45l-5.16 5.15h-36.09l-5.16 5.16v51.57l5.16 5.15h36.09l5.16 5.16v46.41l5.16 5.15h61.88l5.15-5.15v-46.41l5.16-5.16h56.72l5.16-5.15v-51.57l-5.16-5.16h-56.72l-5.16-5.15zM1875.37 1397.52c-36.09 0-56.72-25.78-56.72-72.19 0-46.4 20.63-72.19 56.72-72.19s56.72 25.79 56.72 72.19c0 46.41-20.63 72.19-56.72 72.19m0-206.26c-77.35 0-128.91 51.56-128.91 134.07s51.56 134.07 128.91 134.07c77.34 0 128.91-51.56 128.91-134.07s-51.57-134.07-128.91-134.07M548.078 398.75c0-92.82-51.566-144.391-144.383-144.391-92.816 0-144.382 51.571-144.382 144.391v216.57l5.16 5.149h61.875l5.156-5.149V398.75c0-51.57 20.629-82.512 72.191-82.512 51.567 0 72.192 30.942 72.192 82.512v216.57l5.156 5.149h61.879l5.156-5.149zM837.758 259.52h-61.879l-5.156 5.16v149.539c0 25.781-10.313 46.402-41.25 46.402-36.094 0-56.723-20.621-56.723-67.031V264.68l-5.156-5.16h-61.879l-5.156 5.16v247.511l5.156 5.161h56.723l5.156-5.161 5.156-15.472h5.156c10.313 10.32 30.942 25.781 67.035 25.781 61.879 0 97.973-41.25 97.973-103.129V264.68zM965.008 259.52h-61.879l-5.156 5.16v247.511l5.156 5.161h61.879l5.156-5.161V264.68Zm0 299.082h-61.879l-5.156 5.16v51.558l5.156 5.149h61.879l5.156-5.149v-51.558zM1167.03 264.68l-5.16-5.16h-56.72l-5.16 5.16-87.66 195.941v51.57l5.16 5.161h46.41l5.16-5.161 61.87-159.851h5.16l61.88 159.851 5.16 5.161h46.4l5.16-5.161v-51.57zM1451.56 419.371c0 5.16-5.16 41.25-46.41 41.25s-46.41-36.09-46.41-41.25l5.16-5.152h82.5zm77.35-51.562-5.16-5.161H1363.9l-5.16-5.148c0-10.32 10.31-41.262 51.57-41.262 15.47 0 30.93 5.16 36.09 15.473l5.16 5.148h61.87l5.17-5.148c-5.17-30.941-30.95-77.352-108.29-77.352-87.66 0-128.92 61.879-128.92 134.071 0 72.191 41.26 134.07 123.76 134.07s123.76-61.879 123.76-134.07zM1736.08 455.469h-36.09c-41.25 0-56.72-20.629-56.72-67.039V264.68l-5.16-5.16h-61.88l-5.16 5.16v247.511l5.16 5.161h56.73l5.15-5.161 5.16-15.472h5.15s10.32 20.633 56.72 20.633h30.94l5.16-5.161v-51.57zM1878.8 254.359c-72.19 0-113.44 36.102-113.44 87.661l5.16 5.16h61.88l5.15-5.16c0-20.622 15.47-25.782 41.25-25.782 25.79 0 41.26 5.16 41.26 20.621 0 20.641-20.63 20.641-51.57 25.789-30.94 5.161-97.97 20.633-97.97 82.5 0 41.25 30.93 77.352 108.28 77.352 61.88 0 108.29-25.781 108.29-77.352l-5.16-5.148h-61.87l-5.16 5.148c0 10.321-10.31 15.473-36.1 15.473-25.78 0-36.09-5.152-36.09-20.621 0-20.629 30.94-20.629 61.88-25.781 30.93-5.16 87.65-15.469 87.65-77.36 0-41.25-30.93-82.5-113.44-82.5M2101.45 259.52h-61.88l-5.15 5.16v247.511l5.15 5.161h61.88l5.16-5.161V264.68Zm0 299.082h-61.88l-5.15 5.16v51.558l5.15 5.149h61.88l5.16-5.149v-51.558zM2264.8 336.859c0-10.308 5.16-15.461 15.47-15.461h46.41l5.15-5.16V264.68l-5.15-5.16h-46.41c-46.4 0-87.66 20.628-87.66 77.339v113.45l-5.16 5.16h-36.09l-5.16 5.152v51.57l5.16 5.161h36.09l5.16 5.148v46.41l5.15 5.16h61.89l5.15-5.16V522.5l5.16-5.148h56.72l5.15-5.161v-51.57l-5.15-5.152h-56.72l-5.16-5.16zM2526.12 254.359c-20.62-51.558-41.25-82.5-113.44-82.5h-25.79l-5.15 5.161v51.558l5.15 5.16h25.79c25.78 0 30.94 5.16 36.1 20.621v5.161l-82.51 201.101v51.57l5.16 5.161h46.4l5.16-5.161 61.88-175.332h5.16l61.87 175.332 5.16 5.161h46.41l5.16-5.161v-51.57zM615.113 727.969h-61.879l-5.156 5.16V929.66h-5.156l-69.363-196.531-5.157-5.16H411.68l-5.157 5.16L336.66 929.66h-5.156V733.129l-5.156-5.16h-61.875l-5.16 5.16v350.641l5.16 5.15h77.347l5.157-5.15 90.793-252.668h5.156l89.683 252.668 5.157 5.15h77.347l5.157-5.15V733.129zM834.508 887.82c0 5.16-5.156 41.25-46.406 41.25-41.254 0-46.411-36.09-46.411-41.25l5.157-5.16h82.504zm77.347-51.558-5.156-5.16H746.848l-5.157-5.153c0-10.32 10.313-41.258 51.567-41.258 15.469 0 30.937 5.149 36.094 15.469l5.156 5.149h61.879l5.156-5.149c-5.156-30.941-30.938-77.351-108.285-77.351-87.66 0-128.914 61.882-128.914 134.07 0 72.191 41.254 134.07 123.758 134.07s123.753-61.879 123.753-134.07zM1049.43 805.309c0-10.309 5.15-15.469 15.46-15.469h46.41l5.16-5.149v-51.562l-5.16-5.16h-46.41c-46.41 0-87.656 20.621-87.656 77.34v113.453l-5.156 5.148H935.98l-5.156 5.16v51.571l5.156 5.16h36.098l5.156 5.148v46.411l5.157 5.16h61.879l5.16-5.16v-46.411l5.15-5.148h56.72l5.16-5.16V929.07l-5.16-5.16h-56.72l-5.15-5.148zM1331.37 923.91h-36.09c-41.26 0-56.72-20.621-56.72-67.031v-123.75l-5.16-5.16h-61.88l-5.16 5.16v247.512l5.16 5.16h56.72l5.16-5.16 5.16-15.481h5.15s10.31 20.641 56.72 20.641h30.94l5.16-5.16V929.07zM1474.1 929.07c-36.1 0-56.73-25.781-56.73-72.191s20.63-72.188 56.73-72.188c36.09 0 56.71 25.778 56.71 72.188s-20.62 72.191-56.71 72.191m0-206.261c-77.35 0-128.92 51.57-128.92 134.07s51.57 134.07 128.92 134.07c77.34 0 128.91-51.57 128.91-134.07s-51.57-134.07-128.91-134.07M1775.29 929.07c-41.25 0-56.72-30.941-56.72-72.191s15.47-72.188 56.72-72.188 56.72 30.938 56.72 72.188-15.47 72.191-56.72 72.191m15.47-206.261c-46.41 0-67.03 25.781-67.03 25.781h-5.16V625.629l-5.16-5.16h-61.88l-5.16 5.16v355.012l5.16 5.16h56.73l5.15-5.16 5.16-15.481h5.16s20.62 25.789 67.03 25.789c61.87 0 113.44-51.57 113.44-134.07s-51.57-134.07-113.44-134.07M2062.4 929.07c-36.1 0-56.72-25.781-56.72-72.191s20.62-72.188 56.72-72.188c36.09 0 56.71 25.778 56.71 72.188s-20.62 72.191-56.71 72.191m0-206.261c-77.36 0-128.92 51.57-128.92 134.07s51.56 134.07 128.92 134.07c77.34 0 128.91-51.57 128.91-134.07s-51.57-134.07-128.91-134.07M2301.71 727.969h-61.88l-5.16 5.16v350.641l5.16 5.15h61.88l5.16-5.15V733.129zM2434.12 727.969h-61.88l-5.15 5.16v247.512l5.15 5.16h61.88l5.16-5.16V733.129Zm0 299.081h-61.88l-5.15 5.15v51.57l5.15 5.15h61.88l5.16-5.15v-51.57zM2597.47 805.309c0-10.309 5.15-15.469 15.46-15.469h46.41l5.16-5.149v-51.562l-5.16-5.16h-46.41c-46.4 0-87.66 20.621-87.66 77.34v113.453l-5.16 5.148h-36.09l-5.16 5.16v51.571l5.16 5.16h36.09l5.16 5.148v46.411l5.16 5.16h61.88l5.16-5.16v-46.411l5.15-5.148h56.72l5.16-5.16V929.07l-5.16-5.16h-56.72l-5.15-5.148zM2843.32 836.262s-10.31 5.148-30.94 5.148c-30.93 0-46.4-10.308-46.4-30.941 0-15.469 10.31-25.778 36.09-25.778s46.41 15.469 46.41 36.098v10.313zm72.19-108.293h-56.72l-5.16 5.16-5.15 10.312h-5.16s-20.62-20.632-56.72-20.632c-56.72 0-92.82 30.941-92.82 82.5 0 77.351 72.2 87.671 113.45 87.671 20.62 0 36.09-5.16 36.09-5.16l5.16 5.16v5.149c0 25.781-5.16 30.941-36.1 30.941-15.46 0-30.93 0-36.09-15.468l-5.16-5.153h-61.88l-5.15 5.153c0 30.937 25.78 77.347 108.28 77.347s108.29-41.25 108.29-118.597V733.129zM3210.87 727.969h-61.88l-5.16 5.16V882.66c0 25.789-10.31 46.41-41.25 46.41-36.09 0-56.72-20.621-56.72-67.031v-128.91l-5.15-5.16h-61.88l-5.16 5.16v247.512l5.16 5.16h56.72l5.16-5.16 5.15-15.481h5.16c10.31 10.32 30.94 25.789 67.03 25.789 61.88 0 97.98-41.25 97.98-103.129V733.129z" style="fill:#fff;fill-opacity:1;fill-rule:nonzero;stroke:none" transform="matrix(.13333 0 0 -.13333 0 270.093)"/></svg>