<?xml version="1.0" encoding="UTF-8" standalone="no"?>
<!-- Created with Inkscape (http://www.inkscape.org/) -->

<svg
   version="1.1"
   id="svg1"
   width="880"
   height="880"
   viewBox="0 0 880 880"
   sodipodi:docname="autumn-landscape-publicdomainvectors.org (2).svg"
   inkscape:version="1.3.2 (091e20e, 2023-11-25, custom)"
   xmlns:inkscape="http://www.inkscape.org/namespaces/inkscape"
   xmlns:sodipodi="http://sodipodi.sourceforge.net/DTD/sodipodi-0.dtd"
   xmlns="http://www.w3.org/2000/svg"
   xmlns:svg="http://www.w3.org/2000/svg">
  <defs
     id="defs1">
    <clipPath
       clipPathUnits="userSpaceOnUse"
       id="clipPath3">
      <path
         d="M 0,660 H 660 V 0 H 0 Z"
         transform="translate(-80.029802,-302.04881)"
         id="path3" />
    </clipPath>
    <clipPath
       clipPathUnits="userSpaceOnUse"
       id="clipPath5">
      <path
         d="M 0,660 H 660 V 0 H 0 Z"
         transform="translate(-80.029802,-302.04881)"
         id="path5" />
    </clipPath>
    <clipPath
       clipPathUnits="userSpaceOnUse"
       id="clipPath7">
      <path
         d="M 0,660 H 660 V 0 H 0 Z"
         transform="translate(-518.06051,-210.51561)"
         id="path7" />
    </clipPath>
    <clipPath
       clipPathUnits="userSpaceOnUse"
       id="clipPath9">
      <path
         d="M 0,660 H 660 V 0 H 0 Z"
         transform="translate(-458.53521,-198.5293)"
         id="path9" />
    </clipPath>
    <clipPath
       clipPathUnits="userSpaceOnUse"
       id="clipPath11">
      <path
         d="M 0,660 H 660 V 0 H 0 Z"
         transform="translate(-518.06051,-398.83741)"
         id="path11" />
    </clipPath>
    <clipPath
       clipPathUnits="userSpaceOnUse"
       id="clipPath13">
      <path
         d="M 0,660 H 660 V 0 H 0 Z"
         transform="translate(-458.53521,-403.41261)"
         id="path13" />
    </clipPath>
    <clipPath
       clipPathUnits="userSpaceOnUse"
       id="clipPath15">
      <path
         d="M 0,660 H 660 V 0 H 0 Z"
         transform="translate(-5.7119002,-302.04881)"
         id="path15" />
    </clipPath>
    <clipPath
       clipPathUnits="userSpaceOnUse"
       id="clipPath17">
      <path
         d="M 0,660 H 660 V 0 H 0 Z"
         transform="translate(-5.7119002,-302.04881)"
         id="path17" />
    </clipPath>
    <clipPath
       clipPathUnits="userSpaceOnUse"
       id="clipPath19">
      <path
         d="M 0,660 H 660 V 0 H 0 Z"
         transform="translate(-5.7119002,-302.04881)"
         id="path19" />
    </clipPath>
  </defs>
  <sodipodi:namedview
     id="namedview1"
     pagecolor="#ffffff"
     bordercolor="#000000"
     borderopacity="0.25"
     inkscape:showpageshadow="2"
     inkscape:pageopacity="0.0"
     inkscape:pagecheckerboard="0"
     inkscape:deskcolor="#d1d1d1"
     inkscape:zoom="0.67272727"
     inkscape:cx="439.25676"
     inkscape:cy="440"
     inkscape:window-width="1440"
     inkscape:window-height="830"
     inkscape:window-x="-6"
     inkscape:window-y="-6"
     inkscape:window-maximized="1"
     inkscape:current-layer="g1">
    <inkscape:page
       x="0"
       y="0"
       inkscape:label="1"
       id="page1"
       width="880"
       height="880"
       margin="177.35867 7.1973333 251.89734 7.61584"
       bleed="0" />
  </sodipodi:namedview>
  <g
     id="g1"
     inkscape:groupmode="layer"
     inkscape:label="1">
    <g
       id="group-MC0">
      <path
         id="path2"
         d="m 0,0 20.28,-75.686 c 3.511,-13.103 13.983,-22.287 27.43,-24.056 7.308,-0.963 14.334,0.418 20.314,3.765 5.58,3.12 11.694,3.459 17.582,0.971 5.889,-2.484 9.911,-7.103 11.565,-13.277 l 9.755,-36.406 c 3.716,-13.868 15.351,-23.383 29.682,-24.274 14.327,-0.889 27.052,7.115 32.456,20.416 l 19.052,46.906 c 2.197,5.409 7.174,8.766 13.011,8.778 5.838,0.011 10.828,-3.326 13.047,-8.725 4.94,-12.019 16.301,-19.898 29.651,-20.166 10.397,-0.209 19.776,4.246 25.975,11.805 2.602,3.17 6.489,4.527 10.494,3.662 4.01,-0.863 6.991,-3.703 8.051,-7.664 l 6.192,-23.1 c 3.777,-14.097 15.781,-23.707 30.365,-24.306 14.586,-0.602 27.338,7.99 32.262,21.732 l 9.861,27.525 c 2.529,7.061 7.687,12.071 14.82,14.393 7.133,2.32 14.252,1.307 20.455,-2.914 5.018,-3.414 11.045,-5.422 17.571,-5.623 14.529,-0.451 27.144,8.187 31.978,21.896 L 481.601,0 Z"
         style="fill:#e6f3fc;fill-opacity:1;fill-rule:evenodd;stroke:none"
         transform="matrix(1.3333333,0,0,-1.3333333,106.7064,477.26827)"
         clip-path="url(#clipPath3)" />
      <path
         id="path4"
         d="m 0,0 20.28,75.685 c 3.511,13.101 13.983,22.284 27.43,24.056 7.308,0.96 14.334,-0.419 20.314,-3.765 5.58,-3.121 11.694,-3.459 17.582,-0.973 5.889,2.486 9.911,7.102 11.565,13.278 l 9.755,36.405 c 3.716,13.869 15.351,23.385 29.682,24.275 14.327,0.889 27.052,-7.115 32.456,-20.415 l 19.052,-46.907 c 2.197,-5.409 7.174,-8.765 13.011,-8.777 5.838,-0.013 10.828,3.324 13.047,8.723 4.94,12.019 16.301,19.898 29.651,20.167 10.397,0.208 19.776,-4.245 25.975,-11.805 2.602,-3.17 6.489,-4.528 10.494,-3.662 4.01,0.865 6.991,3.703 8.051,7.663 l 6.192,23.1 c 3.777,14.099 15.781,23.707 30.365,24.309 14.586,0.6 27.338,-7.991 32.262,-21.734 l 9.861,-27.524 c 2.529,-7.061 7.687,-12.072 14.82,-14.394 7.133,-2.321 14.252,-1.307 20.455,2.914 5.018,3.415 11.045,5.423 17.571,5.625 14.529,0.447 27.144,-8.19 31.978,-21.897 L 481.601,0 Z"
         style="fill:#fbf683;fill-opacity:1;fill-rule:evenodd;stroke:none"
         transform="matrix(1.3333333,0,0,-1.3333333,106.7064,477.26827)"
         clip-path="url(#clipPath5)" />
      <path
         id="path6"
         d="M 0,0 C 10.877,0 19.695,31.764 19.695,55.537 19.695,79.313 10.877,89.65 0,89.65 -10.877,89.65 -19.695,79.313 -19.695,55.537 -19.695,31.764 -10.877,0 0,0 m -83.313,-24.066 c 11.518,0 20.854,33.629 20.854,58.8 0,25.17 -9.336,36.118 -20.854,36.118 -11.515,0 -20.851,-10.948 -20.851,-36.118 0,-25.171 9.336,-58.8 20.851,-58.8 m -91.318,15.943 c 10.875,0 19.696,31.764 19.696,55.539 0,23.774 -8.821,34.111 -19.696,34.111 -10.879,0 -19.697,-10.337 -19.697,-34.111 0,-23.775 8.818,-55.539 19.697,-55.539 m -105.934,28.279 c 6.972,0 12.624,20.36 12.624,35.594 0,15.238 -5.652,21.865 -12.624,21.865 -6.971,0 -12.623,-6.627 -12.623,-21.865 0,-15.234 5.652,-35.594 12.623,-35.594 m -107.443,6.321 c 6.97,0 12.623,20.359 12.623,35.595 0,15.239 -5.653,21.864 -12.623,21.864 -6.972,0 -12.624,-6.625 -12.624,-21.864 0,-15.236 5.652,-35.595 12.624,-35.595 m 446.778,0.9 c 6.972,0 12.625,20.357 12.625,35.596 0,15.236 -5.653,21.863 -12.625,21.863 -6.971,0 -12.624,-6.627 -12.624,-21.863 0,-15.239 5.653,-35.596 12.624,-35.596"
         style="fill:#cae4f7;fill-opacity:1;fill-rule:evenodd;stroke:none"
         transform="matrix(1.3333333,0,0,-1.3333333,690.74733,599.31253)"
         clip-path="url(#clipPath7)" />
      <path
         id="path8"
         d="M 0,0 C 10.34,0 18.725,30.203 18.725,52.807 18.725,75.41 10.34,85.238 0,85.238 -10.344,85.238 -18.727,75.41 -18.727,52.807 -18.727,30.203 -10.344,0 0,0 m -58.662,5.418 c 10.342,0 18.724,30.201 18.724,52.805 0,22.601 -8.382,32.431 -18.724,32.431 -10.342,0 -18.727,-9.83 -18.727,-32.431 0,-22.604 8.385,-52.805 18.727,-52.805 m -82.271,17.434 c 8.144,0 14.745,23.783 14.745,41.586 0,17.798 -6.601,25.54 -14.745,25.54 -8.145,0 -14.747,-7.742 -14.747,-25.54 0,-17.803 6.602,-41.586 14.747,-41.586 m -131.394,-52.344 c 9.439,0 17.48,21.519 20.553,43.529 3.005,-7.148 6.736,-11.941 10.778,-11.941 9.95,0 18.018,29.058 18.018,50.808 0,21.75 -8.068,31.209 -18.018,31.209 -8.226,0 -15.163,-6.465 -17.322,-20.986 -3.796,4.764 -8.68,6.996 -14.009,6.996 -12.086,0 -21.885,-11.486 -21.885,-37.904 0,-26.416 9.799,-61.711 21.885,-61.711 m -83.48,20.756 c 12.086,0 21.885,35.297 21.885,61.715 0,26.416 -9.799,37.902 -21.885,37.902 -12.087,0 -21.885,-11.486 -21.885,-37.902 0,-26.418 9.798,-61.715 21.885,-61.715 m 434.494,27.3 c 8.692,0 15.737,25.383 15.737,44.379 0,18.998 -7.045,27.26 -15.737,27.26 -8.693,0 -15.74,-8.262 -15.74,-27.26 0,-18.996 7.047,-44.379 15.74,-44.379"
         style="fill:#8ebae7;fill-opacity:1;fill-rule:evenodd;stroke:none"
         transform="matrix(1.3333333,0,0,-1.3333333,611.38027,615.29427)"
         clip-path="url(#clipPath9)" />
      <path
         id="path10"
         d="M 0,0 C 10.877,0 19.695,-31.764 19.695,-55.538 19.695,-79.312 10.877,-89.65 0,-89.65 c -10.877,0 -19.695,10.338 -19.695,34.112 C -19.695,-31.764 -10.877,0 0,0 m -83.313,24.066 c 11.518,0 20.854,-33.629 20.854,-58.799 0,-25.171 -9.336,-36.118 -20.854,-36.118 -11.515,0 -20.851,10.947 -20.851,36.118 0,25.17 9.336,58.799 20.851,58.799 M -174.631,8.123 c 10.875,0 19.696,-31.764 19.696,-55.539 0,-23.773 -8.821,-34.111 -19.696,-34.111 -10.879,0 -19.697,10.338 -19.697,34.111 0,23.775 8.818,55.539 19.697,55.539 m -105.934,-28.279 c 6.972,0 12.624,-20.36 12.624,-35.596 0,-15.238 -5.652,-21.863 -12.624,-21.863 -6.971,0 -12.623,6.625 -12.623,21.863 0,15.236 5.652,35.596 12.623,35.596 m -107.443,-6.322 c 6.97,0 12.623,-20.358 12.623,-35.595 0,-15.239 -5.653,-21.862 -12.623,-21.862 -6.972,0 -12.624,6.623 -12.624,21.862 0,15.237 5.652,35.595 12.624,35.595 M 58.77,-27.376 c 6.972,0 12.625,-20.357 12.625,-35.596 0,-15.236 -5.653,-21.863 -12.625,-21.863 -6.971,0 -12.624,6.627 -12.624,21.863 0,15.239 5.653,35.596 12.624,35.596"
         style="fill:#fbca07;fill-opacity:1;fill-rule:evenodd;stroke:none"
         transform="matrix(1.3333333,0,0,-1.3333333,690.74733,348.2168)"
         clip-path="url(#clipPath11)" />
      <path
         id="path12"
         d="m 0,0 c 10.34,0 18.725,-30.202 18.725,-52.805 0,-22.604 -8.385,-32.434 -18.725,-32.434 -10.344,0 -18.727,9.83 -18.727,32.434 C -18.727,-30.202 -10.344,0 0,0 m -58.662,-5.416 c 10.342,0 18.724,-30.2 18.724,-52.804 0,-22.603 -8.382,-32.433 -18.724,-32.433 -10.342,0 -18.727,9.83 -18.727,32.433 0,22.604 8.385,52.804 18.727,52.804 m -82.271,-17.436 c 8.144,0 14.745,-23.783 14.745,-41.583 0,-17.802 -6.601,-25.542 -14.745,-25.542 -8.145,0 -14.747,7.74 -14.747,25.542 0,17.8 6.602,41.583 14.747,41.583 m -131.394,52.346 c 9.439,0 17.48,-21.521 20.553,-43.531 3.005,7.151 6.736,11.944 10.778,11.944 9.95,0 18.018,-29.06 18.018,-50.809 0,-21.751 -8.068,-31.208 -18.018,-31.208 -8.226,0 -15.163,6.463 -17.322,20.984 -3.796,-4.762 -8.68,-6.996 -14.009,-6.996 -12.086,0 -21.885,11.488 -21.885,37.905 0,26.416 9.799,61.711 21.885,61.711 m -83.48,-20.757 c 12.086,0 21.885,-35.296 21.885,-61.713 0,-26.417 -9.799,-37.903 -21.885,-37.903 -12.087,0 -21.885,11.486 -21.885,37.903 0,26.417 9.798,61.713 21.885,61.713 M 78.687,-18.564 c 8.692,0 15.737,-25.38 15.737,-44.379 0,-18.997 -7.045,-27.257 -15.737,-27.257 -8.693,0 -15.74,8.26 -15.74,27.257 0,18.999 7.047,44.379 15.74,44.379"
         style="fill:#87b027;fill-opacity:1;fill-rule:evenodd;stroke:none"
         transform="matrix(1.3333333,0,0,-1.3333333,611.38027,342.11653)"
         clip-path="url(#clipPath13)" />
      <path
         id="path14"
         d="m 0,0 h 648.89 l -25.205,2.023 c -18.024,1.448 -33.141,6.85 -48.002,17.147 -17.088,11.84 -39.334,12.541 -56.998,2.267 -10.743,-6.249 -23.122,-6.175 -33.788,0.2 l -7.669,4.586 c -28.209,16.859 -61.694,16.337 -88.764,-0.721 -9.82,-6.188 -21.192,-6.85 -31.666,-1.844 -18.201,8.699 -38.97,8.437 -56.978,-0.75 -13.866,-7.074 -29.331,-6.156 -42.26,2.512 l -2.535,1.699 C 224.786,47.389 187.21,47.845 157.146,29.26 146.256,22.529 133.942,21.502 122.088,26.338 106.085,32.867 87.632,30.967 73.144,20.791 56.422,9.045 39.304,2.924 18.925,1.406 Z"
         style="fill:#adda1a;fill-opacity:1;fill-rule:evenodd;stroke:none"
         transform="matrix(1.3333333,0,0,-1.3333333,7.6158667,477.26827)"
         clip-path="url(#clipPath15)" />
      <path
         id="path16"
         d="m 0,0 h 648.89 l -25.205,-2.025 c -18.024,-1.448 -33.141,-6.85 -48.002,-17.147 -17.088,-11.84 -39.334,-12.541 -56.998,-2.267 -10.743,6.248 -23.122,6.173 -33.788,-0.202 l -7.669,-4.584 c -28.209,-16.861 -61.694,-16.338 -88.764,0.721 -9.82,6.188 -21.192,6.85 -31.666,1.844 -18.201,-8.699 -38.97,-8.438 -56.978,0.75 -13.866,7.072 -29.331,6.156 -42.26,-2.512 l -2.535,-1.699 c -30.239,-20.27 -67.815,-20.727 -97.879,-2.143 -10.89,6.733 -23.204,7.76 -35.058,2.924 -16.003,-6.527 -34.456,-4.631 -48.944,5.547 -16.722,11.748 -33.84,17.869 -54.219,19.385 z"
         style="fill:#b0d1ef;fill-opacity:1;fill-rule:evenodd;stroke:none"
         transform="matrix(1.3333333,0,0,-1.3333333,7.6158667,477.26827)"
         clip-path="url(#clipPath17)" />
      <path
         id="path18"
         d="m 0,0 h 648.89 l -25.205,1.416 c -18.024,1.012 -33.141,4.791 -48.002,11.998 -17.088,8.285 -39.334,8.777 -56.998,1.586 -10.743,-4.371 -23.122,-4.32 -33.788,0.141 l -7.669,3.209 c -28.209,11.798 -61.694,11.434 -88.764,-0.504 -9.82,-4.33 -21.192,-4.793 -31.666,-1.291 -18.201,6.088 -38.97,5.904 -56.978,-0.526 -13.866,-4.947 -29.331,-4.306 -42.26,1.76 l -2.535,1.188 c -30.239,14.185 -67.815,14.503 -97.879,1.5 -10.89,-4.713 -23.204,-5.43 -35.058,-2.045 C 106.085,22.998 87.632,21.67 73.144,14.549 56.422,6.328 39.304,2.045 18.925,0.984 Z"
         style="fill:#9ac421;fill-opacity:1;fill-rule:evenodd;stroke:none"
         transform="matrix(1.3333333,0,0,-1.3333333,7.6158667,477.26827)"
         clip-path="url(#clipPath19)" />
    </g>
  </g>
</svg>
