<svg xmlns="http://www.w3.org/2000/svg" xml:space="preserve" width="800" height="800" viewBox="0 0 512 512"><defs><filter id="a"><feTurbulence baseFrequency="0.05 0.05" numOctaves="2" result="noise"><animate attributeName="baseFrequency" dur="0.5s" repeatCount="indefinite" values="0.05 0.05; 0.055 0.05; 0.05 0.05"/></feTurbulence><feDisplacementMap in="SourceGraphic" in2="noise" scale="1" xChannelSelector="R" yChannelSelector="G"/></filter></defs><g filter="url(#a)"><path d="M439.242 503.916H51.2c-11.906 0-21.558-9.651-21.558-21.558V83.537c0-23.812 19.304-43.116 43.116-43.116h366.484c23.812 0 43.116 19.304 43.116 43.116V460.8c0 23.812-19.304 43.116-43.116 43.116" style="fill:#eaffff"/><path d="M40.421 202.105H18.863c-5.953 0-10.779-4.826-10.779-10.779v-64.674H51.2v64.674c0 5.954-4.826 10.779-10.779 10.779" style="fill:#b9baa6"/><path d="M148.211 460.8H94.316V126.653h53.895z" style="fill:#ddb900"/><path d="M212.884 460.8v43.116H18.863V460.8c0-5.953 4.826-10.779 10.779-10.779h172.463c5.954 0 10.779 4.826 10.779 10.779" style="fill:#b9baa6"/><path d="M503.916 353.011v32.337c0 5.953-4.826 10.779-10.779 10.779h-53.895v53.895h32.337c5.953 0 10.779 4.826 10.779 10.779v43.116h-204.8v-97.011c0-5.953 4.826-10.779 10.779-10.779h75.453v-43.116c0-5.953 4.826-10.779 10.779-10.779h118.568c5.953 0 10.779 4.825 10.779 10.779" style="fill:#e7e8d4"/><path d="M503.916 353.011v32.337c0 5.953-4.826 10.779-10.779 10.779h-53.895v53.895H277.558v-43.116c0-5.953 4.826-10.779 10.779-10.779h75.453v-43.116c0-5.953 4.826-10.779 10.779-10.779h118.568c5.953 0 10.779 4.825 10.779 10.779" style="fill:#d3d5bb"/><path d="M503.916 353.011v32.337c0 5.953-4.826 10.779-10.779 10.779H363.789v-43.116c0-5.953 4.826-10.779 10.779-10.779h118.568c5.954 0 10.78 4.825 10.78 10.779" style="fill:#b9baa6"/><path d="M503.916 29.642c0 11.906-9.651 21.558-21.558 21.558H382.44a21.43 21.43 0 0 1 2.907 10.779c0 11.906-9.651 21.558-21.558 21.558H202.105c-11.906 0-21.558-9.651-21.558-21.558s9.651-21.558 21.558-21.558H323.58a21.43 21.43 0 0 1-2.907-10.779c0-11.906 9.651-21.558 21.558-21.558h140.126c11.907 0 21.559 9.652 21.559 21.558" style="fill:#c5ead4"/><path d="M129.835 37.658a8.085 8.085 0 0 1 10.36-4.834l21.558 7.84a8.083 8.083 0 0 1 4.834 10.36 8.09 8.09 0 0 1-7.598 5.324 8.1 8.1 0 0 1-2.763-.489l-21.558-7.84a8.084 8.084 0 0 1-4.833-10.361m72.27 53.963h161.684c16.344 0 29.642-13.297 29.642-29.642a29.63 29.63 0 0 0-3.996-14.83 8.084 8.084 0 1 0-13.991 8.102 13.27 13.27 0 0 1 1.819 6.728c0 7.43-6.044 13.474-13.474 13.474H202.106c-7.43 0-13.474-6.044-13.474-13.474s6.043-13.475 13.473-13.475H323.58a8.083 8.083 0 0 0 6.995-12.135 13.27 13.27 0 0 1-1.818-6.728c0-7.43 6.044-13.474 13.474-13.474h140.126c7.43 0 13.474 6.044 13.474 13.474s-6.044 13.474-13.474 13.474h-68.985c-4.466 0-8.084 3.62-8.084 8.084s3.618 8.084 8.084 8.084h68.985c16.344 0 29.642-13.297 29.642-29.642S498.702 0 482.358 0H342.232c-16.344 0-29.642 13.297-29.642 29.642q0 1.352.124 2.695H202.105c-16.344 0-29.642 13.297-29.642 29.642s13.298 29.642 29.642 29.642M512 353.011v32.337c0 10.401-8.463 18.863-18.863 18.863h-45.811v22.366c0 4.465-3.618 8.084-8.084 8.084s-8.084-3.62-8.084-8.084v-22.366H288.337a2.7 2.7 0 0 0-2.695 2.695v35.032h57.398c4.466 0 8.084 3.62 8.084 8.084s-3.618 8.084-8.084 8.084h-57.398v37.726h188.632V460.8a2.7 2.7 0 0 0-2.695-2.695h-96.741c-4.466 0-8.084-3.62-8.084-8.084s3.618-8.084 8.084-8.084h96.741c10.401 0 18.863 8.463 18.863 18.863v35.032h13.474a8.084 8.084 0 0 1 8.084 8.084 8.083 8.083 0 0 1-8.084 8.084H180.547a8.084 8.084 0 0 1 0-16.168H204.8V460.8a2.7 2.7 0 0 0-2.695-2.695H29.642a2.7 2.7 0 0 0-2.695 2.695v35.032H148.21a8.084 8.084 0 0 1 0 16.168H8.084a8.085 8.085 0 0 1 0-16.168h2.695V460.8c0-10.401 8.463-18.863 18.863-18.863h56.589v-34.844a8 8 0 0 1 0-.377v-44.894a8 8 0 0 1 0-.377V316.55a8 8 0 0 1 0-.377v-44.894a8 8 0 0 1 0-.377v-44.894a8 8 0 0 1 0-.377v-44.894a8 8 0 0 1 0-.377v-45.621H59.284v56.589c0 10.401-8.463 18.863-18.863 18.863H18.863C8.463 210.189 0 201.727 0 191.326v-64.637c-.001-.304 0-3.101 2.029-5.393l75.424-86.199a8.085 8.085 0 0 1 12.168 10.646L25.9 118.568h76.5V8.084a8.085 8.085 0 0 1 16.168 0v110.484H328.68l-11.81-4.294a8.084 8.084 0 1 1 5.527-15.194l53.596 19.488h52.471a8.084 8.084 0 0 1 8.084 8.084 8.083 8.083 0 0 1-8.084 8.084h-2.695V256a8.083 8.083 0 0 1-8.084 8.084c-7.43 0-13.474 6.044-13.474 13.474s6.044 13.474 13.474 13.474 13.474-6.044 13.474-13.474c0-4.465 3.618-8.084 8.084-8.084s8.084 3.62 8.084 8.084c0 16.345-13.298 29.642-29.642 29.642s-29.642-13.297-29.642-29.642c0-13.544 9.13-24.994 21.558-28.521v-114.3h-34.844a8 8 0 0 1-.376 0H156.295v307.2h45.811c10.401 0 18.863 8.463 18.863 18.863v35.032h48.505v-88.926c0-10.401 8.463-18.863 18.863-18.863h204.8a2.7 2.7 0 0 0 2.695-2.695v-32.337a2.7 2.7 0 0 0-2.695-2.695H374.568a2.7 2.7 0 0 0-2.695 2.695v19.402a8.083 8.083 0 0 1-8.084 8.084 8.084 8.084 0 0 1-8.084-8.084v-19.402c0-10.401 8.463-18.863 18.863-18.863h118.568c10.401-.001 18.864 8.462 18.864 18.863M43.116 134.737H16.168v56.589a2.7 2.7 0 0 0 2.695 2.695h21.558a2.7 2.7 0 0 0 2.695-2.695zm97.01 0H102.4v34.594l21.696-7.232a8.085 8.085 0 0 1 5.112 15.34l-26.808 8.936v28.228l21.696-7.232a8.084 8.084 0 0 1 10.226 5.114 8.084 8.084 0 0 1-5.114 10.226l-26.808 8.936v28.228l21.696-7.232a8.085 8.085 0 0 1 5.112 15.34l-26.808 8.936v28.228l21.696-7.232a8.085 8.085 0 1 1 5.112 15.34l-26.808 8.936v28.228l21.696-7.232a8.085 8.085 0 1 1 5.112 15.34l-26.808 8.936v28.228l21.696-7.232a8.085 8.085 0 1 1 5.112 15.339l-26.808 8.936v29.204h37.726z"/></g></svg>