<svg xmlns="http://www.w3.org/2000/svg" xml:space="preserve" id="Icons" viewBox="0 0 32 32"><defs><filter id="rumble-filter"><feTurbulence baseFrequency="0.05 0.05" numOctaves="2" result="noise"><animate attributeName="baseFrequency" dur="0.5s" repeatCount="indefinite" values="0.05 0.05; 0.055 0.05; 0.05 0.05"/></feTurbulence><feDisplacementMap in="SourceGraphic" in2="noise" scale="1" xChannelSelector="R" yChannelSelector="G"/></filter></defs><style>.st0{fill:none;stroke:#000;stroke-width:2;stroke-linecap:round;stroke-linejoin:round;stroke-miterlimit:10}</style><g filter="url(#rumble-filter)"><path d="M18 29H6c-1.7 0-3-1.3-3-3v0c0-1.7 1.3-3 3-3h12c1.7 0 3 1.3 3 3v0c0 1.7-1.3 3-3 3M4 11h8v9H4zM16 20h-4M16 16 29 5l-2-2-12 8h7l1-5M26 19h-1v1c0 1.1.9 2 2 2h0c1.1 0 2-.9 2-2V5M12 26" class="st0"/></g></svg>