<svg xmlns="http://www.w3.org/2000/svg" xml:space="preserve" viewBox="0 0 32 32"><defs><filter id="a"><feTurbulence baseFrequency="0.05 0.05" numOctaves="2" result="noise"><animate attributeName="baseFrequency" dur="0.5s" repeatCount="indefinite" values="0.05 0.05; 0.055 0.05; 0.05 0.05"/></feTurbulence><feDisplacementMap in="SourceGraphic" in2="noise" scale="1" xChannelSelector="R" yChannelSelector="G"/></filter></defs><g filter="url(#a)"><path d="M18 29H6c-1.7 0-3-1.3-3-3v0c0-1.7 1.3-3 3-3h12c1.7 0 3 1.3 3 3v0c0 1.7-1.3 3-3 3M4 11h8v9H4zm12 9h-4m4-4L29 5l-2-2-12 8h7l1-5m3 13h-1v1c0 1.1.9 2 2 2h0c1.1 0 2-.9 2-2V5M12 26" style="fill:none;stroke:#000;stroke-width:2;stroke-linecap:round;stroke-linejoin:round;stroke-miterlimit:10"/></g></svg>