<svg xmlns="http://www.w3.org/2000/svg" xml:space="preserve" width="800" height="800" viewBox="0 0 512 512"><style>.st0{fill:#16ade1}.st1{fill:#1b3954}</style><g id="Layer_2"><path d="M491.5 392.16h-41.08c-3.87 0-7-3.13-7-7 0-20.5-16.67-37.17-37.17-37.17s-37.17 16.67-37.17 37.17c0 3.87-3.13 7-7 7h-63.04c-3.87 0-7-3.13-7-7s3.13-7 7-7h56.51c1.66-12.09 7.57-22.86 16.16-30.73H125.49c8.59 7.87 14.5 18.64 16.16 30.73h76.11c3.87 0 7 3.13 7 7s-3.13 7-7 7h-82.64c-3.87 0-7-3.13-7-7 0-20.5-16.67-37.17-37.17-37.17s-37.17 16.67-37.17 37.17c0 3.87-3.13 7-7 7H20.5c-3.87 0-7-3.13-7-7v-44.73c0-3.87 3.13-7 7-7h471c3.87 0 7 3.13 7 7v44.73c0 3.87-3.13 7-7 7m-34.56-14h27.56v-30.73h-43.72c8.59 7.87 14.5 18.64 16.16 30.73m-429.44 0h12.77c1.66-12.09 7.57-22.86 16.16-30.73H27.5z" class="st1"/><path d="M256 392.16c-.46 0-.92-.05-1.37-.14a7 7 0 0 1-1.31-.4 6.8 6.8 0 0 1-2.27-1.51c-.32-.32-.62-.68-.87-1.06s-.47-.79-.65-1.21c-.17-.43-.3-.87-.39-1.31-.09-.45-.14-.91-.14-1.37s.05-.92.14-1.37c.09-.44.22-.88.39-1.31.18-.42.4-.83.65-1.21s.55-.74.87-1.06a6.8 6.8 0 0 1 2.27-1.51c.42-.18.87-.31 1.31-.4 2.28-.46 4.69.29 6.32 1.91.32.32.61.68.87 1.06.25.38.47.79.64 1.21a7 7 0 0 1 .54 2.68c0 1.84-.75 3.65-2.05 4.95a7.06 7.06 0 0 1-4.95 2.05m235.5-44.73H321c-3.87 0-7-3.13-7-7V132.65c0-3.87 3.13-7 7-7h117.1c1.86 0 3.64.74 4.95 2.05l53.4 53.4a7 7 0 0 1 2.05 4.95v154.38c0 3.87-3.13 7-7 7m-163.5-14h156.5V188.95l-49.3-49.3H328z" class="st1"/><path d="M455.5 250.52H357c-3.87 0-7-3.13-7-7v-74.87c0-3.87 3.13-7 7-7h66.19c1.86 0 3.64.74 4.95 2.05l32.31 32.31a7 7 0 0 1 2.05 4.95v42.56c0 3.87-3.13 7-7 7m-91.5-14h84.5v-32.66l-28.21-28.21H364z" class="st1"/><path d="M455.5 250.52H357c-3.87 0-7-3.13-7-7v-74.87c0-3.87 3.13-7 7-7h66.19c1.86 0 3.64.74 4.95 2.05l32.31 32.31a7 7 0 0 1 2.05 4.95v42.56c0 3.87-3.13 7-7 7m-91.5-14h84.5v-32.66l-28.21-28.21H364zM90.96 287.14c-3.87 0-7-3.13-7-7v-91.57c0-3.87 3.13-7 7-7s7 3.13 7 7v91.57c0 3.87-3.14 7-7 7m53.1 0c-3.87 0-7-3.13-7-7v-91.57c0-3.87 3.13-7 7-7s7 3.13 7 7v91.57c0 3.87-3.13 7-7 7m53.11 0c-3.87 0-7-3.13-7-7v-91.57c0-3.87 3.13-7 7-7s7 3.13 7 7v91.57c0 3.87-3.13 7-7 7m53.11 0c-.46 0-.92-.04-1.37-.13a7.4 7.4 0 0 1-1.31-.4c-.42-.18-.83-.4-1.21-.65s-.74-.55-1.06-.87c-.33-.32-.62-.68-.87-1.06a7 7 0 0 1-.65-1.21 7.4 7.4 0 0 1-.4-1.31c-.09-.45-.13-.91-.13-1.37 0-.45.04-.91.13-1.37.09-.44.23-.88.4-1.3.18-.43.39-.83.65-1.21.25-.39.54-.74.87-1.07.32-.32.68-.61 1.06-.87.38-.25.79-.47 1.21-.64a6.97 6.97 0 0 1 5.35 0c.43.17.83.39 1.21.64.39.26.74.55 1.07.87.32.33.61.68.87 1.07.25.38.46.78.64 1.21.17.42.31.86.4 1.3.09.46.14.92.14 1.37 0 .46-.05.92-.14 1.37s-.23.89-.4 1.31c-.18.42-.39.83-.64 1.21-.26.38-.55.74-.87 1.06-.33.32-.68.62-1.07.87-.38.25-.78.47-1.21.65-.42.17-.86.31-1.31.4s-.91.13-1.36.13m0-28.59c-3.87 0-7-3.13-7-7v-62.98c0-3.87 3.13-7 7-7s7 3.13 7 7v62.98c0 3.86-3.14 7-7 7" class="st0"/><path d="M491.5 322.72h-20.3c-12.52 0-22.7-10.18-22.7-22.7s10.18-22.7 22.7-22.7h20.3c3.87 0 7 3.13 7 7v31.4c0 3.86-3.13 7-7 7m-20.3-31.41c-4.8 0-8.7 3.9-8.7 8.7s3.9 8.7 8.7 8.7h13.3v-17.4zM321 347.43H33.77c-3.87 0-7-3.13-7-7s3.13-7 7-7H314V132.65c0-3.87 3.13-7 7-7h83.64V89.67H274.31l-41.76 41.76a7 7 0 0 1-4.95 2.05H77.1l-36.33 33.64v132.09c0 3.87-3.13 7-7 7s-7-3.13-7-7V164.06c0-1.95.81-3.81 2.24-5.14l40.59-37.58a6.98 6.98 0 0 1 4.76-1.86H224.7l41.76-41.76a7 7 0 0 1 4.95-2.05h140.23c3.87 0 7 3.13 7 7v49.98c0 3.87-3.13 7-7 7H328v200.78c0 3.87-3.13 7-7 7" class="st1"/><path d="M90.96 436.33c-28.21 0-51.17-22.95-51.17-51.17s22.96-51.17 51.17-51.17 51.17 22.95 51.17 51.17-22.96 51.17-51.17 51.17m0-88.34c-20.5 0-37.17 16.67-37.17 37.17s16.67 37.17 37.17 37.17 37.17-16.67 37.17-37.17-16.67-37.17-37.17-37.17" class="st0"/><path d="M90.96 411.23c-14.38 0-26.07-11.69-26.07-26.07 0-14.37 11.69-26.06 26.07-26.06 14.37 0 26.06 11.69 26.06 26.06 0 14.38-11.69 26.07-26.06 26.07m0-38.13c-6.66 0-12.07 5.41-12.07 12.06 0 6.66 5.41 12.07 12.07 12.07 6.65 0 12.06-5.41 12.06-12.07 0-6.65-5.41-12.06-12.06-12.06" class="st1"/><path d="M90.96 411.23c-14.38 0-26.07-11.69-26.07-26.07 0-14.37 11.69-26.06 26.07-26.06 14.37 0 26.06 11.69 26.06 26.06 0 14.38-11.69 26.07-26.06 26.07m0-38.13c-6.66 0-12.07 5.41-12.07 12.06 0 6.66 5.41 12.07 12.07 12.07 6.65 0 12.06-5.41 12.06-12.07 0-6.65-5.41-12.06-12.06-12.06" class="st1"/><path d="M406.25 436.33c-28.21 0-51.17-22.95-51.17-51.17s22.96-51.17 51.17-51.17 51.17 22.95 51.17 51.17-22.96 51.17-51.17 51.17m0-88.34c-20.5 0-37.17 16.67-37.17 37.17s16.67 37.17 37.17 37.17 37.17-16.67 37.17-37.17-16.67-37.17-37.17-37.17" class="st0"/><path d="M406.25 411.23c-14.37 0-26.06-11.69-26.06-26.07 0-14.37 11.69-26.06 26.06-26.06s26.06 11.69 26.06 26.06c0 14.38-11.69 26.07-26.06 26.07m0-38.13c-6.65 0-12.06 5.41-12.06 12.06 0 6.66 5.41 12.07 12.06 12.07s12.06-5.41 12.06-12.07c0-6.65-5.41-12.06-12.06-12.06" class="st1"/><path d="M406.25 411.23c-14.37 0-26.06-11.69-26.06-26.07 0-14.37 11.69-26.06 26.06-26.06s26.06 11.69 26.06 26.06c0 14.38-11.69 26.07-26.06 26.07m0-38.13c-6.65 0-12.06 5.41-12.06 12.06 0 6.66 5.41 12.07 12.06 12.07s12.06-5.41 12.06-12.07c0-6.65-5.41-12.06-12.06-12.06" class="st1"/></g></svg>