<svg xmlns="http://www.w3.org/2000/svg" width="800" height="800" fill="none" viewBox="0 0 24 24"><defs><filter id="a"><feTurbulence baseFrequency="0.05 0.05" numOctaves="2" result="noise"><animate attributeName="baseFrequency" dur="0.5s" repeatCount="indefinite" values="0.05 0.05; 0.055 0.05; 0.05 0.05"/></feTurbulence><feDisplacementMap in="SourceGraphic" in2="noise" scale="1" xChannelSelector="R" yChannelSelector="G"/></filter></defs><path fill="#0f0f0f" fill-rule="evenodd" d="M3.139 8.586q-.052.313-.08.568c-.16.049-.332.114-.506.202a2.75 2.75 0 0 0-1.073.933C1.172 10.752 1 11.325 1 12s.172 1.248.48 1.71c.305.458.704.75 1.073.934.174.088.346.153.506.202q.028.255.08.568c.136.816.41 1.918.967 3.033.559 1.119 1.414 2.268 2.714 3.135C8.127 22.453 9.825 23 12 23s3.873-.547 5.18-1.418c1.3-.867 2.155-2.016 2.714-3.135.558-1.114.832-2.217.967-3.033q.052-.312.08-.568c.16-.05.332-.114.506-.202a2.76 2.76 0 0 0 1.073-.933c.308-.463.48-1.036.48-1.711s-.172-1.248-.48-1.71a2.76 2.76 0 0 0-1.073-.934 3.3 3.3 0 0 0-.505-.202q-.03-.255-.08-.568a10.8 10.8 0 0 0-.968-3.033c-.559-1.119-1.414-2.268-2.714-3.135C15.873 1.547 14.175 1 12 1s-3.873.547-5.18 1.418c-1.3.867-2.155 2.016-2.714 3.135a10.8 10.8 0 0 0-.967 3.033M18.903 15H5.098c.108.692.335 1.63.796 2.553.441.881 1.086 1.732 2.036 2.365C8.873 20.547 10.175 21 12 21s3.127-.453 4.07-1.082c.95-.633 1.595-1.484 2.036-2.365.46-.923.688-1.861.796-2.553m0-6H18a1 1 0 1 0 0 2h2c.308.012.676.13.855.398.067.1.145.277.145.602s-.078.502-.145.602c-.18.269-.547.386-.855.398H4c-.308-.012-.676-.13-.855-.398C3.078 12.502 3 12.325 3 12s.078-.502.145-.602c.18-.269.547-.386.855-.398h2a1 1 0 1 0 0-2h-.902c.108-.692.335-1.63.796-2.553.441-.881 1.086-1.732 2.036-2.365.314-.21.67-.4 1.07-.56V6a1 1 0 1 0 2 0V3.049A10 10 0 0 1 12 3q.528 0 1 .049V6a1 1 0 1 0 2 0V3.522c.4.16.756.35 1.07.56.95.633 1.595 1.484 2.036 2.365.46.923.688 1.861.796 2.553" clip-rule="evenodd" filter="url(#a)"/></svg>